G04 #@! TF.FileFunction,Copper,L1,Top,Signal*
%FSLAX46Y46*%
G04 Gerber Fmt 4.6, Leading zero omitted, Abs format (unit mm)*
G04 Created by KiCad (PCBNEW 4.0.7) date Tuesday, October 30, 2018 'PMt' 11:33:51 PM*
%MOMM*%
%LPD*%
G01*
G04 APERTURE LIST*
%ADD10C,0.100000*%
%ADD11R,1.200000X0.750000*%
%ADD12R,0.750000X1.200000*%
%ADD13R,0.700000X0.600000*%
%ADD14R,1.300000X1.800000*%
%ADD15O,1.000000X1.000000*%
%ADD16R,2.900000X0.800000*%
%ADD17R,0.900000X1.200000*%
%ADD18R,1.200000X0.900000*%
%ADD19C,0.800000*%
%ADD20R,1.550000X1.200000*%
%ADD21R,1.560000X0.650000*%
%ADD22R,1.500000X0.450000*%
%ADD23C,0.600000*%
%ADD24C,0.500000*%
%ADD25C,0.300000*%
%ADD26C,0.200000*%
%ADD27C,0.250000*%
G04 APERTURE END LIST*
D10*
D11*
X113248400Y-82118200D03*
X115148400Y-82118200D03*
X128305600Y-75234800D03*
X126405600Y-75234800D03*
D12*
X119964200Y-78399600D03*
X119964200Y-80299600D03*
D11*
X117820400Y-82118200D03*
X119720400Y-82118200D03*
X114543800Y-79375000D03*
X116443800Y-79375000D03*
X114543800Y-78054200D03*
X116443800Y-78054200D03*
X128661200Y-81864200D03*
X126761200Y-81864200D03*
D13*
X112979200Y-71080400D03*
X112979200Y-72480400D03*
D14*
X106480000Y-75690000D03*
X110680000Y-75690000D03*
X106480000Y-81510000D03*
X110680000Y-81510000D03*
D15*
X105003600Y-77851000D03*
X104978200Y-79781400D03*
X119761000Y-70205600D03*
X118491000Y-70205600D03*
X117221000Y-70205600D03*
X115951000Y-70205600D03*
X130420000Y-78820000D03*
X130410000Y-81870000D03*
X130420000Y-80350000D03*
X130403600Y-75006200D03*
X130403600Y-76454000D03*
D16*
X122478800Y-78300400D03*
X122478800Y-80500400D03*
D17*
X112953800Y-74084000D03*
X112953800Y-76284000D03*
X112420400Y-78249600D03*
X112420400Y-80449600D03*
D18*
X123731200Y-82016600D03*
X121531200Y-82016600D03*
X125239600Y-80365600D03*
X127439600Y-80365600D03*
D17*
X122529600Y-74175800D03*
X122529600Y-71975800D03*
D19*
X108600000Y-73800000D03*
D20*
X106100000Y-71500000D03*
X106100000Y-73200000D03*
X111150000Y-71500000D03*
X111150000Y-73200000D03*
D19*
X108600000Y-70900000D03*
X126800000Y-73800000D03*
D20*
X124300000Y-71500000D03*
X124300000Y-73200000D03*
X129350000Y-71500000D03*
X129350000Y-73200000D03*
D19*
X126800000Y-70900000D03*
D21*
X125421400Y-76850200D03*
X125421400Y-77800200D03*
X125421400Y-78750200D03*
X128121400Y-78750200D03*
X128121400Y-76850200D03*
X128121400Y-77800200D03*
D22*
X114728200Y-72375600D03*
X114728200Y-73025600D03*
X114728200Y-73675600D03*
X114728200Y-74325600D03*
X114728200Y-74975600D03*
X114728200Y-75625600D03*
X114728200Y-76275600D03*
X114728200Y-76925600D03*
X120628200Y-76925600D03*
X120628200Y-76275600D03*
X120628200Y-75625600D03*
X120628200Y-74975600D03*
X120628200Y-74325600D03*
X120628200Y-73675600D03*
X120628200Y-73025600D03*
X120628200Y-72375600D03*
D23*
X125222000Y-82143600D03*
X129286000Y-80314800D03*
X127609600Y-72059800D03*
X119303800Y-73914000D03*
X107746800Y-71907400D03*
X111963200Y-82092800D03*
X122605800Y-82245200D03*
X124815600Y-74726800D03*
X126720600Y-78740000D03*
X116509800Y-81280000D03*
X106502200Y-77724000D03*
X126390400Y-80340200D03*
X122504200Y-79527400D03*
X122021600Y-76263500D03*
X123774200Y-75590400D03*
X122783600Y-70662800D03*
X118440200Y-72771000D03*
X116078000Y-72771000D03*
X107492800Y-73126600D03*
X111937800Y-75107800D03*
X119176800Y-75133200D03*
X111912400Y-76301600D03*
X120446800Y-71120000D03*
X122948700Y-76377800D03*
D24*
X126761200Y-81864200D02*
X125526800Y-81864200D01*
X125247400Y-82143600D02*
X125222000Y-82143600D01*
X125526800Y-81864200D02*
X125247400Y-82143600D01*
D25*
X124300000Y-71500000D02*
X125754400Y-71500000D01*
X126314200Y-72059800D02*
X127609600Y-72059800D01*
X125754400Y-71500000D02*
X126314200Y-72059800D01*
D24*
X119761000Y-70205600D02*
X119761000Y-70713600D01*
X119761000Y-70713600D02*
X119303800Y-71272400D01*
X119303800Y-71272400D02*
X119303800Y-73914000D01*
D26*
X106100000Y-71500000D02*
X107339400Y-71500000D01*
X107339400Y-71500000D02*
X107746800Y-71907400D01*
X113248400Y-82118200D02*
X111988600Y-82118200D01*
X111988600Y-82118200D02*
X111963200Y-82092800D01*
X121531200Y-82016600D02*
X122377200Y-82016600D01*
X122377200Y-82016600D02*
X122605800Y-82245200D01*
D27*
X125421400Y-76850200D02*
X125421400Y-76069200D01*
X124815600Y-75463400D02*
X124815600Y-74726800D01*
X125421400Y-76069200D02*
X124815600Y-75463400D01*
D24*
X126746000Y-78714600D02*
X126771400Y-78714600D01*
X126720600Y-78740000D02*
X126746000Y-78714600D01*
X106480000Y-75690000D02*
X106480000Y-77701800D01*
X106480000Y-77701800D02*
X106502200Y-77724000D01*
X115148400Y-82118200D02*
X115148400Y-81549200D01*
X117820400Y-81549200D02*
X117820400Y-82118200D01*
X117551200Y-81280000D02*
X117820400Y-81549200D01*
X115417600Y-81280000D02*
X116509800Y-81280000D01*
X116509800Y-81280000D02*
X117551200Y-81280000D01*
X115148400Y-81549200D02*
X115417600Y-81280000D01*
X128121400Y-77800200D02*
X127269820Y-77800200D01*
X127269820Y-77800200D02*
X126771400Y-78298620D01*
X126771400Y-78298620D02*
X126771400Y-78714600D01*
X126735800Y-78750200D02*
X125421400Y-78750200D01*
X126771400Y-78714600D02*
X126735800Y-78750200D01*
X117795000Y-82092800D02*
X117820400Y-82118200D01*
X115173800Y-82092800D02*
X115148400Y-82118200D01*
D26*
X128305600Y-75234800D02*
X128305600Y-76666000D01*
X128305600Y-76666000D02*
X128121400Y-76850200D01*
D24*
X125421400Y-77800200D02*
X123621800Y-77800200D01*
X123621800Y-77800200D02*
X123121600Y-78300400D01*
X123121600Y-78300400D02*
X122478800Y-78300400D01*
D26*
X126405600Y-75234800D02*
X126405600Y-76189800D01*
X126492000Y-77800200D02*
X125421400Y-77800200D01*
X126720600Y-77571600D02*
X126492000Y-77800200D01*
X126720600Y-76504800D02*
X126720600Y-77571600D01*
X126405600Y-76189800D02*
X126720600Y-76504800D01*
X125421400Y-77800200D02*
X124739400Y-77800200D01*
D24*
X127439600Y-80365600D02*
X128143000Y-80365600D01*
X128661200Y-80883800D02*
X128661200Y-81864200D01*
X128143000Y-80365600D02*
X128661200Y-80883800D01*
X130410000Y-81870000D02*
X128667000Y-81870000D01*
X128667000Y-81870000D02*
X128661200Y-81864200D01*
X122453400Y-79476600D02*
X122504200Y-79527400D01*
X119964200Y-79679800D02*
X119964200Y-80299600D01*
X119964200Y-79679800D02*
X120167400Y-79476600D01*
X120167400Y-79476600D02*
X122453400Y-79476600D01*
D25*
X119964200Y-80299600D02*
X118755200Y-80299600D01*
X117297200Y-79349600D02*
X116469200Y-79349600D01*
X118755200Y-80299600D02*
X117805200Y-79349600D01*
X117805200Y-79349600D02*
X117297200Y-79349600D01*
D24*
X119964200Y-80299600D02*
X120004800Y-80299600D01*
X122478800Y-80500400D02*
X120088800Y-80500400D01*
X120088800Y-80500400D02*
X119938800Y-80350400D01*
D25*
X116748600Y-71689000D02*
X116748600Y-73370400D01*
X115951000Y-70891400D02*
X116748600Y-71689000D01*
X115951000Y-70205600D02*
X115951000Y-70891400D01*
X116748600Y-73370400D02*
X116443400Y-73675600D01*
X114728200Y-73675600D02*
X116443400Y-73675600D01*
X116443800Y-73949600D02*
X116443800Y-78054200D01*
X116443800Y-73676000D02*
X116443800Y-73949600D01*
X116443400Y-73675600D02*
X116443800Y-73676000D01*
X116469200Y-79349600D02*
X116443800Y-79375000D01*
D24*
X126390400Y-80340200D02*
X127439600Y-80365600D01*
X130390400Y-81889600D02*
X130410000Y-81870000D01*
D25*
X116443800Y-79375000D02*
X116443800Y-78054200D01*
D24*
X130288800Y-81991200D02*
X130410000Y-81870000D01*
D26*
X112864900Y-70599300D02*
X112991900Y-70726300D01*
X112864900Y-70599300D02*
X109651800Y-70599300D01*
X109651800Y-70599300D02*
X109499400Y-70713600D01*
X110680000Y-75690000D02*
X109675200Y-75690000D01*
X109499400Y-75514200D02*
X109499400Y-70713600D01*
X109675200Y-75690000D02*
X109499400Y-75514200D01*
X112991900Y-70726300D02*
X112991900Y-71067700D01*
X112991900Y-71067700D02*
X112979200Y-71080400D01*
D24*
X105003600Y-77851000D02*
X105791000Y-78638400D01*
X110680000Y-78067400D02*
X110680000Y-75690000D01*
X110109000Y-78638400D02*
X110680000Y-78067400D01*
X105791000Y-78638400D02*
X110109000Y-78638400D01*
D26*
X110680000Y-75690000D02*
X110680000Y-75324200D01*
X112953800Y-74084000D02*
X112953800Y-72505800D01*
X112953800Y-72505800D02*
X112979200Y-72480400D01*
D24*
X104978200Y-79781400D02*
X105994200Y-79781400D01*
X106480000Y-80267200D02*
X106480000Y-81510000D01*
X105994200Y-79781400D02*
X106480000Y-80267200D01*
D26*
X120628200Y-76275600D02*
X122009500Y-76275600D01*
X122009500Y-76275600D02*
X122021600Y-76263500D01*
X123739000Y-75625600D02*
X123774200Y-75590400D01*
X122529600Y-71975800D02*
X122529600Y-70916800D01*
X122529600Y-70916800D02*
X122783600Y-70662800D01*
X114728200Y-73025600D02*
X115823400Y-73025600D01*
X118491000Y-72720200D02*
X118491000Y-70205600D01*
X118440200Y-72771000D02*
X118491000Y-72720200D01*
X115823400Y-73025600D02*
X116078000Y-72771000D01*
X114728200Y-75625600D02*
X113852600Y-75625600D01*
X107419400Y-73200000D02*
X106100000Y-73200000D01*
X107492800Y-73126600D02*
X107419400Y-73200000D01*
X113334800Y-75107800D02*
X111937800Y-75107800D01*
X113852600Y-75625600D02*
X113334800Y-75107800D01*
X112953800Y-76284000D02*
X111930000Y-76284000D01*
X119176800Y-75133200D02*
X119334400Y-74975600D01*
X119334400Y-74975600D02*
X120628200Y-74975600D01*
X111930000Y-76284000D02*
X111912400Y-76301600D01*
X112420400Y-78249600D02*
X112420400Y-77673200D01*
X112420400Y-77673200D02*
X112953800Y-77139800D01*
X112953800Y-77139800D02*
X112953800Y-76284000D01*
D24*
X123731200Y-82016600D02*
X123731200Y-82008800D01*
X123731200Y-82008800D02*
X124612400Y-81127600D01*
X125239600Y-81084600D02*
X125239600Y-80365600D01*
X125196600Y-81127600D02*
X125239600Y-81084600D01*
X124612400Y-81127600D02*
X125196600Y-81127600D01*
D26*
X123731200Y-82016600D02*
X123731200Y-81874000D01*
X128121400Y-78750200D02*
X128121400Y-79168000D01*
X127711200Y-79578200D02*
X125399800Y-79578200D01*
X128121400Y-79168000D02*
X127711200Y-79578200D01*
X125239600Y-79738400D02*
X125239600Y-80365600D01*
X125425200Y-79552800D02*
X125399800Y-79578200D01*
X125399800Y-79578200D02*
X125239600Y-79738400D01*
X126415800Y-79552800D02*
X125425200Y-79552800D01*
X120628200Y-75625600D02*
X122011800Y-75625600D01*
X122529600Y-75107800D02*
X122529600Y-74175800D01*
X122011800Y-75625600D02*
X122529600Y-75107800D01*
X122379800Y-74325600D02*
X122529600Y-74175800D01*
X120628200Y-73025600D02*
X124125600Y-73025600D01*
X124125600Y-73025600D02*
X124300000Y-73200000D01*
X120628200Y-72375600D02*
X120457800Y-72375600D01*
X120457800Y-72375600D02*
X120446800Y-71120000D01*
X120628200Y-76925600D02*
X122400900Y-76925600D01*
X122400900Y-76925600D02*
X122948700Y-76377800D01*
G36*
X115993800Y-77373323D02*
X115843800Y-77373323D01*
X115732627Y-77394242D01*
X115630521Y-77459945D01*
X115562022Y-77560197D01*
X115537923Y-77679200D01*
X115537923Y-78429200D01*
X115558842Y-78540373D01*
X115624545Y-78642479D01*
X115724797Y-78710978D01*
X115738971Y-78713848D01*
X115732627Y-78715042D01*
X115630521Y-78780745D01*
X115562022Y-78880997D01*
X115537923Y-79000000D01*
X115537923Y-79750000D01*
X115558842Y-79861173D01*
X115624545Y-79963279D01*
X115724797Y-80031778D01*
X115843800Y-80055877D01*
X117043800Y-80055877D01*
X117154973Y-80034958D01*
X117257079Y-79969255D01*
X117325578Y-79869003D01*
X117339633Y-79799600D01*
X117618804Y-79799600D01*
X118437002Y-80617798D01*
X118582992Y-80715346D01*
X118755200Y-80749600D01*
X119283323Y-80749600D01*
X119283323Y-80899600D01*
X119304242Y-81010773D01*
X119369945Y-81112879D01*
X119470197Y-81181378D01*
X119589200Y-81205477D01*
X120339200Y-81205477D01*
X120450373Y-81184558D01*
X120552479Y-81118855D01*
X120599252Y-81050400D01*
X120768826Y-81050400D01*
X120809545Y-81113679D01*
X120909797Y-81182178D01*
X121028800Y-81206277D01*
X123755905Y-81206277D01*
X123701459Y-81260723D01*
X123131200Y-81260723D01*
X123020027Y-81281642D01*
X122917921Y-81347345D01*
X122849422Y-81447597D01*
X122825323Y-81566600D01*
X122825323Y-82466600D01*
X122836312Y-82525000D01*
X122431200Y-82525000D01*
X122431200Y-82141600D01*
X122356200Y-82066600D01*
X121581200Y-82066600D01*
X121581200Y-82086600D01*
X121481200Y-82086600D01*
X121481200Y-82066600D01*
X120706200Y-82066600D01*
X120631200Y-82141600D01*
X120631200Y-82525000D01*
X120620400Y-82525000D01*
X120620400Y-82243200D01*
X120545400Y-82168200D01*
X119770400Y-82168200D01*
X119770400Y-82188200D01*
X119670400Y-82188200D01*
X119670400Y-82168200D01*
X118895400Y-82168200D01*
X118820400Y-82243200D01*
X118820400Y-82525000D01*
X118719837Y-82525000D01*
X118726277Y-82493200D01*
X118726277Y-81743200D01*
X118715049Y-81683527D01*
X118820400Y-81683527D01*
X118820400Y-81993200D01*
X118895400Y-82068200D01*
X119670400Y-82068200D01*
X119670400Y-81518200D01*
X119770400Y-81518200D01*
X119770400Y-82068200D01*
X120545400Y-82068200D01*
X120620400Y-81993200D01*
X120620400Y-81683527D01*
X120574728Y-81573264D01*
X120508392Y-81506927D01*
X120631200Y-81506927D01*
X120631200Y-81891600D01*
X120706200Y-81966600D01*
X121481200Y-81966600D01*
X121481200Y-81341600D01*
X121581200Y-81341600D01*
X121581200Y-81966600D01*
X122356200Y-81966600D01*
X122431200Y-81891600D01*
X122431200Y-81506927D01*
X122385528Y-81396664D01*
X122301137Y-81312272D01*
X122190874Y-81266600D01*
X121656200Y-81266600D01*
X121581200Y-81341600D01*
X121481200Y-81341600D01*
X121406200Y-81266600D01*
X120871526Y-81266600D01*
X120761263Y-81312272D01*
X120676872Y-81396664D01*
X120631200Y-81506927D01*
X120508392Y-81506927D01*
X120490337Y-81488872D01*
X120380074Y-81443200D01*
X119845400Y-81443200D01*
X119770400Y-81518200D01*
X119670400Y-81518200D01*
X119595400Y-81443200D01*
X119060726Y-81443200D01*
X118950463Y-81488872D01*
X118866072Y-81573264D01*
X118820400Y-81683527D01*
X118715049Y-81683527D01*
X118705358Y-81632027D01*
X118639655Y-81529921D01*
X118539403Y-81461422D01*
X118420400Y-81437323D01*
X118348146Y-81437323D01*
X118328534Y-81338724D01*
X118209309Y-81160291D01*
X117940109Y-80891091D01*
X117761676Y-80771866D01*
X117551200Y-80730000D01*
X116749834Y-80730000D01*
X116629671Y-80680104D01*
X116390976Y-80679896D01*
X116269715Y-80730000D01*
X115417600Y-80730000D01*
X115207124Y-80771866D01*
X115028691Y-80891091D01*
X114759491Y-81160291D01*
X114640266Y-81338724D01*
X114620654Y-81437323D01*
X114548400Y-81437323D01*
X114437227Y-81458242D01*
X114335121Y-81523945D01*
X114266622Y-81624197D01*
X114242523Y-81743200D01*
X114242523Y-82493200D01*
X114248507Y-82525000D01*
X114148400Y-82525000D01*
X114148400Y-82243200D01*
X114073400Y-82168200D01*
X113298400Y-82168200D01*
X113298400Y-82188200D01*
X113198400Y-82188200D01*
X113198400Y-82168200D01*
X112423400Y-82168200D01*
X112348400Y-82243200D01*
X112348400Y-82525000D01*
X111607083Y-82525000D01*
X111630000Y-82469673D01*
X111630000Y-81683527D01*
X112348400Y-81683527D01*
X112348400Y-81993200D01*
X112423400Y-82068200D01*
X113198400Y-82068200D01*
X113198400Y-81518200D01*
X113298400Y-81518200D01*
X113298400Y-82068200D01*
X114073400Y-82068200D01*
X114148400Y-81993200D01*
X114148400Y-81683527D01*
X114102728Y-81573264D01*
X114018337Y-81488872D01*
X113908074Y-81443200D01*
X113373400Y-81443200D01*
X113298400Y-81518200D01*
X113198400Y-81518200D01*
X113123400Y-81443200D01*
X112588726Y-81443200D01*
X112478463Y-81488872D01*
X112394072Y-81573264D01*
X112348400Y-81683527D01*
X111630000Y-81683527D01*
X111630000Y-81635000D01*
X111555000Y-81560000D01*
X110730000Y-81560000D01*
X110730000Y-81580000D01*
X110630000Y-81580000D01*
X110630000Y-81560000D01*
X109805000Y-81560000D01*
X109730000Y-81635000D01*
X109730000Y-82469673D01*
X109752917Y-82525000D01*
X107412589Y-82525000D01*
X107435877Y-82410000D01*
X107435877Y-80610000D01*
X107424649Y-80550327D01*
X109730000Y-80550327D01*
X109730000Y-81385000D01*
X109805000Y-81460000D01*
X110630000Y-81460000D01*
X110630000Y-80385000D01*
X110730000Y-80385000D01*
X110730000Y-81460000D01*
X111555000Y-81460000D01*
X111630000Y-81385000D01*
X111630000Y-80574600D01*
X111670400Y-80574600D01*
X111670400Y-81109274D01*
X111716072Y-81219537D01*
X111800464Y-81303928D01*
X111910727Y-81349600D01*
X112295400Y-81349600D01*
X112370400Y-81274600D01*
X112370400Y-80499600D01*
X112470400Y-80499600D01*
X112470400Y-81274600D01*
X112545400Y-81349600D01*
X112930073Y-81349600D01*
X113040336Y-81303928D01*
X113124728Y-81219537D01*
X113170400Y-81109274D01*
X113170400Y-80574600D01*
X113095400Y-80499600D01*
X112470400Y-80499600D01*
X112370400Y-80499600D01*
X111745400Y-80499600D01*
X111670400Y-80574600D01*
X111630000Y-80574600D01*
X111630000Y-80550327D01*
X111584328Y-80440064D01*
X111499937Y-80355672D01*
X111389674Y-80310000D01*
X110805000Y-80310000D01*
X110730000Y-80385000D01*
X110630000Y-80385000D01*
X110555000Y-80310000D01*
X109970326Y-80310000D01*
X109860063Y-80355672D01*
X109775672Y-80440064D01*
X109730000Y-80550327D01*
X107424649Y-80550327D01*
X107414958Y-80498827D01*
X107349255Y-80396721D01*
X107249003Y-80328222D01*
X107130000Y-80304123D01*
X107030000Y-80304123D01*
X107030000Y-80267200D01*
X106988134Y-80056724D01*
X106868909Y-79878291D01*
X106780544Y-79789926D01*
X111670400Y-79789926D01*
X111670400Y-80324600D01*
X111745400Y-80399600D01*
X112370400Y-80399600D01*
X112370400Y-79624600D01*
X112470400Y-79624600D01*
X112470400Y-80399600D01*
X113095400Y-80399600D01*
X113170400Y-80324600D01*
X113170400Y-79789926D01*
X113124728Y-79679663D01*
X113040336Y-79595272D01*
X112930073Y-79549600D01*
X112545400Y-79549600D01*
X112470400Y-79624600D01*
X112370400Y-79624600D01*
X112295400Y-79549600D01*
X111910727Y-79549600D01*
X111800464Y-79595272D01*
X111716072Y-79679663D01*
X111670400Y-79789926D01*
X106780544Y-79789926D01*
X106490618Y-79500000D01*
X113643800Y-79500000D01*
X113643800Y-79809673D01*
X113689472Y-79919936D01*
X113773863Y-80004328D01*
X113884126Y-80050000D01*
X114418800Y-80050000D01*
X114493800Y-79975000D01*
X114493800Y-79425000D01*
X114593800Y-79425000D01*
X114593800Y-79975000D01*
X114668800Y-80050000D01*
X115203474Y-80050000D01*
X115313737Y-80004328D01*
X115398128Y-79919936D01*
X115443800Y-79809673D01*
X115443800Y-79500000D01*
X115368800Y-79425000D01*
X114593800Y-79425000D01*
X114493800Y-79425000D01*
X113718800Y-79425000D01*
X113643800Y-79500000D01*
X106490618Y-79500000D01*
X106383109Y-79392491D01*
X106204676Y-79273266D01*
X105994200Y-79231400D01*
X105570038Y-79231400D01*
X105559558Y-79215715D01*
X105375000Y-79092396D01*
X105375000Y-79000218D01*
X105402091Y-79027309D01*
X105580524Y-79146534D01*
X105791000Y-79188401D01*
X105791005Y-79188400D01*
X110109000Y-79188400D01*
X110319476Y-79146534D01*
X110497909Y-79027309D01*
X111068909Y-78456309D01*
X111188134Y-78277876D01*
X111230000Y-78067400D01*
X111230000Y-76895877D01*
X111330000Y-76895877D01*
X111441173Y-76874958D01*
X111543279Y-76809255D01*
X111554698Y-76792543D01*
X111572083Y-76809959D01*
X111792529Y-76901496D01*
X112031224Y-76901704D01*
X112197923Y-76832825D01*
X112197923Y-76884000D01*
X112218842Y-76995173D01*
X112284545Y-77097279D01*
X112371335Y-77156580D01*
X112184191Y-77343723D01*
X111970400Y-77343723D01*
X111859227Y-77364642D01*
X111757121Y-77430345D01*
X111688622Y-77530597D01*
X111664523Y-77649600D01*
X111664523Y-78849600D01*
X111685442Y-78960773D01*
X111751145Y-79062879D01*
X111851397Y-79131378D01*
X111970400Y-79155477D01*
X112870400Y-79155477D01*
X112981573Y-79134558D01*
X113083679Y-79068855D01*
X113152178Y-78968603D01*
X113176277Y-78849600D01*
X113176277Y-78179200D01*
X113643800Y-78179200D01*
X113643800Y-78488873D01*
X113689472Y-78599136D01*
X113773863Y-78683528D01*
X113848878Y-78714600D01*
X113773863Y-78745672D01*
X113689472Y-78830064D01*
X113643800Y-78940327D01*
X113643800Y-79250000D01*
X113718800Y-79325000D01*
X114493800Y-79325000D01*
X114493800Y-78775000D01*
X114433400Y-78714600D01*
X114493800Y-78654200D01*
X114493800Y-78104200D01*
X114593800Y-78104200D01*
X114593800Y-78654200D01*
X114654200Y-78714600D01*
X114593800Y-78775000D01*
X114593800Y-79325000D01*
X115368800Y-79325000D01*
X115443800Y-79250000D01*
X115443800Y-78940327D01*
X115398128Y-78830064D01*
X115313737Y-78745672D01*
X115238722Y-78714600D01*
X115313737Y-78683528D01*
X115398128Y-78599136D01*
X115443800Y-78488873D01*
X115443800Y-78179200D01*
X115368800Y-78104200D01*
X114593800Y-78104200D01*
X114493800Y-78104200D01*
X113718800Y-78104200D01*
X113643800Y-78179200D01*
X113176277Y-78179200D01*
X113176277Y-77649600D01*
X113155358Y-77538427D01*
X113141850Y-77517435D01*
X113236640Y-77422645D01*
X113236643Y-77422643D01*
X113323352Y-77292873D01*
X113329538Y-77261773D01*
X113343840Y-77189877D01*
X113403800Y-77189877D01*
X113514973Y-77168958D01*
X113617079Y-77103255D01*
X113672323Y-77022402D01*
X113672323Y-77150600D01*
X113693242Y-77261773D01*
X113758945Y-77363879D01*
X113820151Y-77405699D01*
X113773863Y-77424872D01*
X113689472Y-77509264D01*
X113643800Y-77619527D01*
X113643800Y-77929200D01*
X113718800Y-78004200D01*
X114493800Y-78004200D01*
X114493800Y-77984200D01*
X114593800Y-77984200D01*
X114593800Y-78004200D01*
X115368800Y-78004200D01*
X115443800Y-77929200D01*
X115443800Y-77619527D01*
X115398128Y-77509264D01*
X115345342Y-77456477D01*
X115478200Y-77456477D01*
X115589373Y-77435558D01*
X115691479Y-77369855D01*
X115759978Y-77269603D01*
X115784077Y-77150600D01*
X115784077Y-76700600D01*
X115764570Y-76596929D01*
X115784077Y-76500600D01*
X115784077Y-76050600D01*
X115764570Y-75946929D01*
X115784077Y-75850600D01*
X115784077Y-75400600D01*
X115764570Y-75296929D01*
X115784077Y-75200600D01*
X115784077Y-74750600D01*
X115764085Y-74644351D01*
X115778200Y-74610273D01*
X115778200Y-74450600D01*
X115703200Y-74375600D01*
X114778200Y-74375600D01*
X114778200Y-74395600D01*
X114678200Y-74395600D01*
X114678200Y-74375600D01*
X114658200Y-74375600D01*
X114658200Y-74275600D01*
X114678200Y-74275600D01*
X114678200Y-74255600D01*
X114778200Y-74255600D01*
X114778200Y-74275600D01*
X115703200Y-74275600D01*
X115778200Y-74200600D01*
X115778200Y-74125600D01*
X115993800Y-74125600D01*
X115993800Y-77373323D01*
X115993800Y-77373323D01*
G37*
X115993800Y-77373323D02*
X115843800Y-77373323D01*
X115732627Y-77394242D01*
X115630521Y-77459945D01*
X115562022Y-77560197D01*
X115537923Y-77679200D01*
X115537923Y-78429200D01*
X115558842Y-78540373D01*
X115624545Y-78642479D01*
X115724797Y-78710978D01*
X115738971Y-78713848D01*
X115732627Y-78715042D01*
X115630521Y-78780745D01*
X115562022Y-78880997D01*
X115537923Y-79000000D01*
X115537923Y-79750000D01*
X115558842Y-79861173D01*
X115624545Y-79963279D01*
X115724797Y-80031778D01*
X115843800Y-80055877D01*
X117043800Y-80055877D01*
X117154973Y-80034958D01*
X117257079Y-79969255D01*
X117325578Y-79869003D01*
X117339633Y-79799600D01*
X117618804Y-79799600D01*
X118437002Y-80617798D01*
X118582992Y-80715346D01*
X118755200Y-80749600D01*
X119283323Y-80749600D01*
X119283323Y-80899600D01*
X119304242Y-81010773D01*
X119369945Y-81112879D01*
X119470197Y-81181378D01*
X119589200Y-81205477D01*
X120339200Y-81205477D01*
X120450373Y-81184558D01*
X120552479Y-81118855D01*
X120599252Y-81050400D01*
X120768826Y-81050400D01*
X120809545Y-81113679D01*
X120909797Y-81182178D01*
X121028800Y-81206277D01*
X123755905Y-81206277D01*
X123701459Y-81260723D01*
X123131200Y-81260723D01*
X123020027Y-81281642D01*
X122917921Y-81347345D01*
X122849422Y-81447597D01*
X122825323Y-81566600D01*
X122825323Y-82466600D01*
X122836312Y-82525000D01*
X122431200Y-82525000D01*
X122431200Y-82141600D01*
X122356200Y-82066600D01*
X121581200Y-82066600D01*
X121581200Y-82086600D01*
X121481200Y-82086600D01*
X121481200Y-82066600D01*
X120706200Y-82066600D01*
X120631200Y-82141600D01*
X120631200Y-82525000D01*
X120620400Y-82525000D01*
X120620400Y-82243200D01*
X120545400Y-82168200D01*
X119770400Y-82168200D01*
X119770400Y-82188200D01*
X119670400Y-82188200D01*
X119670400Y-82168200D01*
X118895400Y-82168200D01*
X118820400Y-82243200D01*
X118820400Y-82525000D01*
X118719837Y-82525000D01*
X118726277Y-82493200D01*
X118726277Y-81743200D01*
X118715049Y-81683527D01*
X118820400Y-81683527D01*
X118820400Y-81993200D01*
X118895400Y-82068200D01*
X119670400Y-82068200D01*
X119670400Y-81518200D01*
X119770400Y-81518200D01*
X119770400Y-82068200D01*
X120545400Y-82068200D01*
X120620400Y-81993200D01*
X120620400Y-81683527D01*
X120574728Y-81573264D01*
X120508392Y-81506927D01*
X120631200Y-81506927D01*
X120631200Y-81891600D01*
X120706200Y-81966600D01*
X121481200Y-81966600D01*
X121481200Y-81341600D01*
X121581200Y-81341600D01*
X121581200Y-81966600D01*
X122356200Y-81966600D01*
X122431200Y-81891600D01*
X122431200Y-81506927D01*
X122385528Y-81396664D01*
X122301137Y-81312272D01*
X122190874Y-81266600D01*
X121656200Y-81266600D01*
X121581200Y-81341600D01*
X121481200Y-81341600D01*
X121406200Y-81266600D01*
X120871526Y-81266600D01*
X120761263Y-81312272D01*
X120676872Y-81396664D01*
X120631200Y-81506927D01*
X120508392Y-81506927D01*
X120490337Y-81488872D01*
X120380074Y-81443200D01*
X119845400Y-81443200D01*
X119770400Y-81518200D01*
X119670400Y-81518200D01*
X119595400Y-81443200D01*
X119060726Y-81443200D01*
X118950463Y-81488872D01*
X118866072Y-81573264D01*
X118820400Y-81683527D01*
X118715049Y-81683527D01*
X118705358Y-81632027D01*
X118639655Y-81529921D01*
X118539403Y-81461422D01*
X118420400Y-81437323D01*
X118348146Y-81437323D01*
X118328534Y-81338724D01*
X118209309Y-81160291D01*
X117940109Y-80891091D01*
X117761676Y-80771866D01*
X117551200Y-80730000D01*
X116749834Y-80730000D01*
X116629671Y-80680104D01*
X116390976Y-80679896D01*
X116269715Y-80730000D01*
X115417600Y-80730000D01*
X115207124Y-80771866D01*
X115028691Y-80891091D01*
X114759491Y-81160291D01*
X114640266Y-81338724D01*
X114620654Y-81437323D01*
X114548400Y-81437323D01*
X114437227Y-81458242D01*
X114335121Y-81523945D01*
X114266622Y-81624197D01*
X114242523Y-81743200D01*
X114242523Y-82493200D01*
X114248507Y-82525000D01*
X114148400Y-82525000D01*
X114148400Y-82243200D01*
X114073400Y-82168200D01*
X113298400Y-82168200D01*
X113298400Y-82188200D01*
X113198400Y-82188200D01*
X113198400Y-82168200D01*
X112423400Y-82168200D01*
X112348400Y-82243200D01*
X112348400Y-82525000D01*
X111607083Y-82525000D01*
X111630000Y-82469673D01*
X111630000Y-81683527D01*
X112348400Y-81683527D01*
X112348400Y-81993200D01*
X112423400Y-82068200D01*
X113198400Y-82068200D01*
X113198400Y-81518200D01*
X113298400Y-81518200D01*
X113298400Y-82068200D01*
X114073400Y-82068200D01*
X114148400Y-81993200D01*
X114148400Y-81683527D01*
X114102728Y-81573264D01*
X114018337Y-81488872D01*
X113908074Y-81443200D01*
X113373400Y-81443200D01*
X113298400Y-81518200D01*
X113198400Y-81518200D01*
X113123400Y-81443200D01*
X112588726Y-81443200D01*
X112478463Y-81488872D01*
X112394072Y-81573264D01*
X112348400Y-81683527D01*
X111630000Y-81683527D01*
X111630000Y-81635000D01*
X111555000Y-81560000D01*
X110730000Y-81560000D01*
X110730000Y-81580000D01*
X110630000Y-81580000D01*
X110630000Y-81560000D01*
X109805000Y-81560000D01*
X109730000Y-81635000D01*
X109730000Y-82469673D01*
X109752917Y-82525000D01*
X107412589Y-82525000D01*
X107435877Y-82410000D01*
X107435877Y-80610000D01*
X107424649Y-80550327D01*
X109730000Y-80550327D01*
X109730000Y-81385000D01*
X109805000Y-81460000D01*
X110630000Y-81460000D01*
X110630000Y-80385000D01*
X110730000Y-80385000D01*
X110730000Y-81460000D01*
X111555000Y-81460000D01*
X111630000Y-81385000D01*
X111630000Y-80574600D01*
X111670400Y-80574600D01*
X111670400Y-81109274D01*
X111716072Y-81219537D01*
X111800464Y-81303928D01*
X111910727Y-81349600D01*
X112295400Y-81349600D01*
X112370400Y-81274600D01*
X112370400Y-80499600D01*
X112470400Y-80499600D01*
X112470400Y-81274600D01*
X112545400Y-81349600D01*
X112930073Y-81349600D01*
X113040336Y-81303928D01*
X113124728Y-81219537D01*
X113170400Y-81109274D01*
X113170400Y-80574600D01*
X113095400Y-80499600D01*
X112470400Y-80499600D01*
X112370400Y-80499600D01*
X111745400Y-80499600D01*
X111670400Y-80574600D01*
X111630000Y-80574600D01*
X111630000Y-80550327D01*
X111584328Y-80440064D01*
X111499937Y-80355672D01*
X111389674Y-80310000D01*
X110805000Y-80310000D01*
X110730000Y-80385000D01*
X110630000Y-80385000D01*
X110555000Y-80310000D01*
X109970326Y-80310000D01*
X109860063Y-80355672D01*
X109775672Y-80440064D01*
X109730000Y-80550327D01*
X107424649Y-80550327D01*
X107414958Y-80498827D01*
X107349255Y-80396721D01*
X107249003Y-80328222D01*
X107130000Y-80304123D01*
X107030000Y-80304123D01*
X107030000Y-80267200D01*
X106988134Y-80056724D01*
X106868909Y-79878291D01*
X106780544Y-79789926D01*
X111670400Y-79789926D01*
X111670400Y-80324600D01*
X111745400Y-80399600D01*
X112370400Y-80399600D01*
X112370400Y-79624600D01*
X112470400Y-79624600D01*
X112470400Y-80399600D01*
X113095400Y-80399600D01*
X113170400Y-80324600D01*
X113170400Y-79789926D01*
X113124728Y-79679663D01*
X113040336Y-79595272D01*
X112930073Y-79549600D01*
X112545400Y-79549600D01*
X112470400Y-79624600D01*
X112370400Y-79624600D01*
X112295400Y-79549600D01*
X111910727Y-79549600D01*
X111800464Y-79595272D01*
X111716072Y-79679663D01*
X111670400Y-79789926D01*
X106780544Y-79789926D01*
X106490618Y-79500000D01*
X113643800Y-79500000D01*
X113643800Y-79809673D01*
X113689472Y-79919936D01*
X113773863Y-80004328D01*
X113884126Y-80050000D01*
X114418800Y-80050000D01*
X114493800Y-79975000D01*
X114493800Y-79425000D01*
X114593800Y-79425000D01*
X114593800Y-79975000D01*
X114668800Y-80050000D01*
X115203474Y-80050000D01*
X115313737Y-80004328D01*
X115398128Y-79919936D01*
X115443800Y-79809673D01*
X115443800Y-79500000D01*
X115368800Y-79425000D01*
X114593800Y-79425000D01*
X114493800Y-79425000D01*
X113718800Y-79425000D01*
X113643800Y-79500000D01*
X106490618Y-79500000D01*
X106383109Y-79392491D01*
X106204676Y-79273266D01*
X105994200Y-79231400D01*
X105570038Y-79231400D01*
X105559558Y-79215715D01*
X105375000Y-79092396D01*
X105375000Y-79000218D01*
X105402091Y-79027309D01*
X105580524Y-79146534D01*
X105791000Y-79188401D01*
X105791005Y-79188400D01*
X110109000Y-79188400D01*
X110319476Y-79146534D01*
X110497909Y-79027309D01*
X111068909Y-78456309D01*
X111188134Y-78277876D01*
X111230000Y-78067400D01*
X111230000Y-76895877D01*
X111330000Y-76895877D01*
X111441173Y-76874958D01*
X111543279Y-76809255D01*
X111554698Y-76792543D01*
X111572083Y-76809959D01*
X111792529Y-76901496D01*
X112031224Y-76901704D01*
X112197923Y-76832825D01*
X112197923Y-76884000D01*
X112218842Y-76995173D01*
X112284545Y-77097279D01*
X112371335Y-77156580D01*
X112184191Y-77343723D01*
X111970400Y-77343723D01*
X111859227Y-77364642D01*
X111757121Y-77430345D01*
X111688622Y-77530597D01*
X111664523Y-77649600D01*
X111664523Y-78849600D01*
X111685442Y-78960773D01*
X111751145Y-79062879D01*
X111851397Y-79131378D01*
X111970400Y-79155477D01*
X112870400Y-79155477D01*
X112981573Y-79134558D01*
X113083679Y-79068855D01*
X113152178Y-78968603D01*
X113176277Y-78849600D01*
X113176277Y-78179200D01*
X113643800Y-78179200D01*
X113643800Y-78488873D01*
X113689472Y-78599136D01*
X113773863Y-78683528D01*
X113848878Y-78714600D01*
X113773863Y-78745672D01*
X113689472Y-78830064D01*
X113643800Y-78940327D01*
X113643800Y-79250000D01*
X113718800Y-79325000D01*
X114493800Y-79325000D01*
X114493800Y-78775000D01*
X114433400Y-78714600D01*
X114493800Y-78654200D01*
X114493800Y-78104200D01*
X114593800Y-78104200D01*
X114593800Y-78654200D01*
X114654200Y-78714600D01*
X114593800Y-78775000D01*
X114593800Y-79325000D01*
X115368800Y-79325000D01*
X115443800Y-79250000D01*
X115443800Y-78940327D01*
X115398128Y-78830064D01*
X115313737Y-78745672D01*
X115238722Y-78714600D01*
X115313737Y-78683528D01*
X115398128Y-78599136D01*
X115443800Y-78488873D01*
X115443800Y-78179200D01*
X115368800Y-78104200D01*
X114593800Y-78104200D01*
X114493800Y-78104200D01*
X113718800Y-78104200D01*
X113643800Y-78179200D01*
X113176277Y-78179200D01*
X113176277Y-77649600D01*
X113155358Y-77538427D01*
X113141850Y-77517435D01*
X113236640Y-77422645D01*
X113236643Y-77422643D01*
X113323352Y-77292873D01*
X113329538Y-77261773D01*
X113343840Y-77189877D01*
X113403800Y-77189877D01*
X113514973Y-77168958D01*
X113617079Y-77103255D01*
X113672323Y-77022402D01*
X113672323Y-77150600D01*
X113693242Y-77261773D01*
X113758945Y-77363879D01*
X113820151Y-77405699D01*
X113773863Y-77424872D01*
X113689472Y-77509264D01*
X113643800Y-77619527D01*
X113643800Y-77929200D01*
X113718800Y-78004200D01*
X114493800Y-78004200D01*
X114493800Y-77984200D01*
X114593800Y-77984200D01*
X114593800Y-78004200D01*
X115368800Y-78004200D01*
X115443800Y-77929200D01*
X115443800Y-77619527D01*
X115398128Y-77509264D01*
X115345342Y-77456477D01*
X115478200Y-77456477D01*
X115589373Y-77435558D01*
X115691479Y-77369855D01*
X115759978Y-77269603D01*
X115784077Y-77150600D01*
X115784077Y-76700600D01*
X115764570Y-76596929D01*
X115784077Y-76500600D01*
X115784077Y-76050600D01*
X115764570Y-75946929D01*
X115784077Y-75850600D01*
X115784077Y-75400600D01*
X115764570Y-75296929D01*
X115784077Y-75200600D01*
X115784077Y-74750600D01*
X115764085Y-74644351D01*
X115778200Y-74610273D01*
X115778200Y-74450600D01*
X115703200Y-74375600D01*
X114778200Y-74375600D01*
X114778200Y-74395600D01*
X114678200Y-74395600D01*
X114678200Y-74375600D01*
X114658200Y-74375600D01*
X114658200Y-74275600D01*
X114678200Y-74275600D01*
X114678200Y-74255600D01*
X114778200Y-74255600D01*
X114778200Y-74275600D01*
X115703200Y-74275600D01*
X115778200Y-74200600D01*
X115778200Y-74125600D01*
X115993800Y-74125600D01*
X115993800Y-77373323D01*
G36*
X126270529Y-80940096D02*
X126509224Y-80940304D01*
X126553728Y-80921915D01*
X126554642Y-80926773D01*
X126620345Y-81028879D01*
X126720597Y-81097378D01*
X126839600Y-81121477D01*
X128039600Y-81121477D01*
X128108159Y-81108576D01*
X128111200Y-81111617D01*
X128111200Y-81183323D01*
X128061200Y-81183323D01*
X127950027Y-81204242D01*
X127847921Y-81269945D01*
X127779422Y-81370197D01*
X127755323Y-81489200D01*
X127755323Y-82239200D01*
X127776242Y-82350373D01*
X127841945Y-82452479D01*
X127942197Y-82520978D01*
X127962058Y-82525000D01*
X127455156Y-82525000D01*
X127531137Y-82493528D01*
X127615528Y-82409136D01*
X127661200Y-82298873D01*
X127661200Y-81989200D01*
X127586200Y-81914200D01*
X126811200Y-81914200D01*
X126811200Y-81934200D01*
X126711200Y-81934200D01*
X126711200Y-81914200D01*
X125936200Y-81914200D01*
X125861200Y-81989200D01*
X125861200Y-82298873D01*
X125906872Y-82409136D01*
X125991263Y-82493528D01*
X126067244Y-82525000D01*
X124625251Y-82525000D01*
X124637077Y-82466600D01*
X124637077Y-81880741D01*
X124840218Y-81677600D01*
X125196600Y-81677600D01*
X125407076Y-81635734D01*
X125585509Y-81516509D01*
X125628509Y-81473509D01*
X125657896Y-81429527D01*
X125861200Y-81429527D01*
X125861200Y-81739200D01*
X125936200Y-81814200D01*
X126711200Y-81814200D01*
X126711200Y-81264200D01*
X126811200Y-81264200D01*
X126811200Y-81814200D01*
X127586200Y-81814200D01*
X127661200Y-81739200D01*
X127661200Y-81429527D01*
X127615528Y-81319264D01*
X127531137Y-81234872D01*
X127420874Y-81189200D01*
X126886200Y-81189200D01*
X126811200Y-81264200D01*
X126711200Y-81264200D01*
X126636200Y-81189200D01*
X126101526Y-81189200D01*
X125991263Y-81234872D01*
X125906872Y-81319264D01*
X125861200Y-81429527D01*
X125657896Y-81429527D01*
X125747734Y-81295076D01*
X125782265Y-81121477D01*
X125839600Y-81121477D01*
X125950773Y-81100558D01*
X126052879Y-81034855D01*
X126121378Y-80934603D01*
X126131921Y-80882541D01*
X126270529Y-80940096D01*
X126270529Y-80940096D01*
G37*
X126270529Y-80940096D02*
X126509224Y-80940304D01*
X126553728Y-80921915D01*
X126554642Y-80926773D01*
X126620345Y-81028879D01*
X126720597Y-81097378D01*
X126839600Y-81121477D01*
X128039600Y-81121477D01*
X128108159Y-81108576D01*
X128111200Y-81111617D01*
X128111200Y-81183323D01*
X128061200Y-81183323D01*
X127950027Y-81204242D01*
X127847921Y-81269945D01*
X127779422Y-81370197D01*
X127755323Y-81489200D01*
X127755323Y-82239200D01*
X127776242Y-82350373D01*
X127841945Y-82452479D01*
X127942197Y-82520978D01*
X127962058Y-82525000D01*
X127455156Y-82525000D01*
X127531137Y-82493528D01*
X127615528Y-82409136D01*
X127661200Y-82298873D01*
X127661200Y-81989200D01*
X127586200Y-81914200D01*
X126811200Y-81914200D01*
X126811200Y-81934200D01*
X126711200Y-81934200D01*
X126711200Y-81914200D01*
X125936200Y-81914200D01*
X125861200Y-81989200D01*
X125861200Y-82298873D01*
X125906872Y-82409136D01*
X125991263Y-82493528D01*
X126067244Y-82525000D01*
X124625251Y-82525000D01*
X124637077Y-82466600D01*
X124637077Y-81880741D01*
X124840218Y-81677600D01*
X125196600Y-81677600D01*
X125407076Y-81635734D01*
X125585509Y-81516509D01*
X125628509Y-81473509D01*
X125657896Y-81429527D01*
X125861200Y-81429527D01*
X125861200Y-81739200D01*
X125936200Y-81814200D01*
X126711200Y-81814200D01*
X126711200Y-81264200D01*
X126811200Y-81264200D01*
X126811200Y-81814200D01*
X127586200Y-81814200D01*
X127661200Y-81739200D01*
X127661200Y-81429527D01*
X127615528Y-81319264D01*
X127531137Y-81234872D01*
X127420874Y-81189200D01*
X126886200Y-81189200D01*
X126811200Y-81264200D01*
X126711200Y-81264200D01*
X126636200Y-81189200D01*
X126101526Y-81189200D01*
X125991263Y-81234872D01*
X125906872Y-81319264D01*
X125861200Y-81429527D01*
X125657896Y-81429527D01*
X125747734Y-81295076D01*
X125782265Y-81121477D01*
X125839600Y-81121477D01*
X125950773Y-81100558D01*
X126052879Y-81034855D01*
X126121378Y-80934603D01*
X126131921Y-80882541D01*
X126270529Y-80940096D01*
G36*
X119811000Y-70928874D02*
X119865936Y-70954294D01*
X119846904Y-71000129D01*
X119846696Y-71238824D01*
X119937848Y-71459429D01*
X120050749Y-71572527D01*
X120053133Y-71844723D01*
X119878200Y-71844723D01*
X119767027Y-71865642D01*
X119664921Y-71931345D01*
X119596422Y-72031597D01*
X119572323Y-72150600D01*
X119572323Y-72600600D01*
X119591830Y-72704271D01*
X119572323Y-72800600D01*
X119572323Y-73250600D01*
X119591830Y-73354271D01*
X119572323Y-73450600D01*
X119572323Y-73900600D01*
X119591830Y-74004271D01*
X119572323Y-74100600D01*
X119572323Y-74550600D01*
X119577027Y-74575600D01*
X119398531Y-74575600D01*
X119296671Y-74533304D01*
X119057976Y-74533096D01*
X118837371Y-74624248D01*
X118668441Y-74792883D01*
X118576904Y-75013329D01*
X118576696Y-75252024D01*
X118667848Y-75472629D01*
X118836483Y-75641559D01*
X119056929Y-75733096D01*
X119295624Y-75733304D01*
X119516229Y-75642152D01*
X119572323Y-75586156D01*
X119572323Y-75850600D01*
X119591830Y-75954271D01*
X119572323Y-76050600D01*
X119572323Y-76500600D01*
X119591830Y-76604271D01*
X119572323Y-76700600D01*
X119572323Y-77150600D01*
X119593242Y-77261773D01*
X119658945Y-77363879D01*
X119759197Y-77432378D01*
X119878200Y-77456477D01*
X121378200Y-77456477D01*
X121489373Y-77435558D01*
X121591479Y-77369855D01*
X121621717Y-77325600D01*
X122400900Y-77325600D01*
X122553974Y-77295152D01*
X122683743Y-77208443D01*
X122914415Y-76977771D01*
X123067524Y-76977904D01*
X123288129Y-76886752D01*
X123457059Y-76718117D01*
X123548596Y-76497671D01*
X123548624Y-76465527D01*
X124341400Y-76465527D01*
X124341400Y-76725200D01*
X124416400Y-76800200D01*
X125371400Y-76800200D01*
X125371400Y-76300200D01*
X125296400Y-76225200D01*
X124581726Y-76225200D01*
X124471463Y-76270872D01*
X124387072Y-76355264D01*
X124341400Y-76465527D01*
X123548624Y-76465527D01*
X123548804Y-76258976D01*
X123492694Y-76123179D01*
X123654329Y-76190296D01*
X123893024Y-76190504D01*
X124113629Y-76099352D01*
X124282559Y-75930717D01*
X124374096Y-75710271D01*
X124374304Y-75471576D01*
X124283152Y-75250971D01*
X124114517Y-75082041D01*
X123894071Y-74990504D01*
X123655376Y-74990296D01*
X123434771Y-75081448D01*
X123265841Y-75250083D01*
X123174304Y-75470529D01*
X123174096Y-75709224D01*
X123230206Y-75845021D01*
X123068571Y-75777904D01*
X122829876Y-75777696D01*
X122609271Y-75868848D01*
X122537385Y-75940608D01*
X122530552Y-75924071D01*
X122404893Y-75798193D01*
X122812443Y-75390643D01*
X122899152Y-75260874D01*
X122929601Y-75107800D01*
X122929600Y-75107795D01*
X122929600Y-75081677D01*
X122979600Y-75081677D01*
X123090773Y-75060758D01*
X123192879Y-74995055D01*
X123261378Y-74894803D01*
X123285477Y-74775800D01*
X123285477Y-73981781D01*
X123305745Y-74013279D01*
X123405997Y-74081778D01*
X123525000Y-74105877D01*
X125075000Y-74105877D01*
X125186173Y-74084958D01*
X125288279Y-74019255D01*
X125343368Y-73938628D01*
X126099879Y-73938628D01*
X126206223Y-74196000D01*
X126402964Y-74393085D01*
X126660150Y-74499878D01*
X126938628Y-74500121D01*
X127196000Y-74393777D01*
X127393085Y-74197036D01*
X127499878Y-73939850D01*
X127500121Y-73661372D01*
X127393777Y-73404000D01*
X127197036Y-73206915D01*
X126939850Y-73100122D01*
X126661372Y-73099879D01*
X126404000Y-73206223D01*
X126206915Y-73402964D01*
X126100122Y-73660150D01*
X126099879Y-73938628D01*
X125343368Y-73938628D01*
X125356778Y-73919003D01*
X125380877Y-73800000D01*
X125380877Y-72600000D01*
X125359958Y-72488827D01*
X125294255Y-72386721D01*
X125245712Y-72353553D01*
X125329328Y-72269936D01*
X125375000Y-72159673D01*
X125375000Y-71625000D01*
X125300000Y-71550000D01*
X124350000Y-71550000D01*
X124350000Y-71570000D01*
X124250000Y-71570000D01*
X124250000Y-71550000D01*
X124230000Y-71550000D01*
X124230000Y-71450000D01*
X124250000Y-71450000D01*
X124250000Y-70675000D01*
X124350000Y-70675000D01*
X124350000Y-71450000D01*
X125300000Y-71450000D01*
X125375000Y-71375000D01*
X125375000Y-70840327D01*
X125329328Y-70730064D01*
X125244937Y-70645672D01*
X125134674Y-70600000D01*
X124425000Y-70600000D01*
X124350000Y-70675000D01*
X124250000Y-70675000D01*
X124175000Y-70600000D01*
X123465326Y-70600000D01*
X123383626Y-70633841D01*
X123383677Y-70575000D01*
X126177003Y-70575000D01*
X126100122Y-70760150D01*
X126099879Y-71038628D01*
X126206223Y-71296000D01*
X126402964Y-71493085D01*
X126660150Y-71599878D01*
X126938628Y-71600121D01*
X127196000Y-71493777D01*
X127393085Y-71297036D01*
X127499878Y-71039850D01*
X127500121Y-70761372D01*
X127423114Y-70575000D01*
X130025000Y-70575000D01*
X130025000Y-70594123D01*
X128575000Y-70594123D01*
X128463827Y-70615042D01*
X128361721Y-70680745D01*
X128293222Y-70780997D01*
X128269123Y-70900000D01*
X128269123Y-72100000D01*
X128290042Y-72211173D01*
X128355745Y-72313279D01*
X128409494Y-72350004D01*
X128361721Y-72380745D01*
X128293222Y-72480997D01*
X128269123Y-72600000D01*
X128269123Y-73800000D01*
X128290042Y-73911173D01*
X128355745Y-74013279D01*
X128455997Y-74081778D01*
X128575000Y-74105877D01*
X130025000Y-74105877D01*
X130025000Y-74305035D01*
X129822242Y-74440515D01*
X129648823Y-74700053D01*
X129587927Y-75006200D01*
X129648823Y-75312347D01*
X129822242Y-75571885D01*
X130025000Y-75707365D01*
X130025000Y-75752835D01*
X129822242Y-75888315D01*
X129648823Y-76147853D01*
X129587927Y-76454000D01*
X129648823Y-76760147D01*
X129822242Y-77019685D01*
X130025000Y-77155165D01*
X130025000Y-78129794D01*
X129838642Y-78254315D01*
X129665223Y-78513853D01*
X129604327Y-78820000D01*
X129665223Y-79126147D01*
X129838642Y-79385685D01*
X130025000Y-79510206D01*
X130025000Y-81173112D01*
X129828642Y-81304315D01*
X129818162Y-81320000D01*
X129508819Y-81320000D01*
X129480455Y-81275921D01*
X129380203Y-81207422D01*
X129261200Y-81183323D01*
X129211200Y-81183323D01*
X129211200Y-80883800D01*
X129169334Y-80673324D01*
X129050109Y-80494891D01*
X129050106Y-80494889D01*
X128531909Y-79976691D01*
X128353476Y-79857466D01*
X128333802Y-79853553D01*
X128324558Y-79804427D01*
X128258855Y-79702321D01*
X128195829Y-79659257D01*
X128404240Y-79450845D01*
X128404243Y-79450843D01*
X128450859Y-79381077D01*
X128901400Y-79381077D01*
X129012573Y-79360158D01*
X129114679Y-79294455D01*
X129183178Y-79194203D01*
X129207277Y-79075200D01*
X129207277Y-78425200D01*
X129186358Y-78314027D01*
X129161677Y-78275671D01*
X129183178Y-78244203D01*
X129207277Y-78125200D01*
X129207277Y-77475200D01*
X129186358Y-77364027D01*
X129161677Y-77325671D01*
X129183178Y-77294203D01*
X129207277Y-77175200D01*
X129207277Y-76525200D01*
X129186358Y-76414027D01*
X129120655Y-76311921D01*
X129020403Y-76243422D01*
X128901400Y-76219323D01*
X128705600Y-76219323D01*
X128705600Y-75915677D01*
X128905600Y-75915677D01*
X129016773Y-75894758D01*
X129118879Y-75829055D01*
X129187378Y-75728803D01*
X129211477Y-75609800D01*
X129211477Y-74859800D01*
X129190558Y-74748627D01*
X129124855Y-74646521D01*
X129024603Y-74578022D01*
X128905600Y-74553923D01*
X127705600Y-74553923D01*
X127594427Y-74574842D01*
X127492321Y-74640545D01*
X127423822Y-74740797D01*
X127399723Y-74859800D01*
X127399723Y-75609800D01*
X127420642Y-75720973D01*
X127486345Y-75823079D01*
X127586597Y-75891578D01*
X127705600Y-75915677D01*
X127905600Y-75915677D01*
X127905600Y-76219323D01*
X127341400Y-76219323D01*
X127230227Y-76240242D01*
X127128121Y-76305945D01*
X127091660Y-76359308D01*
X127090152Y-76351727D01*
X127003443Y-76221957D01*
X126805600Y-76024114D01*
X126805600Y-75915677D01*
X127005600Y-75915677D01*
X127116773Y-75894758D01*
X127218879Y-75829055D01*
X127287378Y-75728803D01*
X127311477Y-75609800D01*
X127311477Y-74859800D01*
X127290558Y-74748627D01*
X127224855Y-74646521D01*
X127124603Y-74578022D01*
X127005600Y-74553923D01*
X125805600Y-74553923D01*
X125694427Y-74574842D01*
X125592321Y-74640545D01*
X125523822Y-74740797D01*
X125499723Y-74859800D01*
X125499723Y-75609800D01*
X125520642Y-75720973D01*
X125586345Y-75823079D01*
X125686597Y-75891578D01*
X125805600Y-75915677D01*
X126005600Y-75915677D01*
X126005600Y-76189800D01*
X126012641Y-76225200D01*
X125546400Y-76225200D01*
X125471400Y-76300200D01*
X125471400Y-76800200D01*
X125491400Y-76800200D01*
X125491400Y-76900200D01*
X125471400Y-76900200D01*
X125471400Y-76920200D01*
X125371400Y-76920200D01*
X125371400Y-76900200D01*
X124416400Y-76900200D01*
X124341400Y-76975200D01*
X124341400Y-77234873D01*
X124347749Y-77250200D01*
X123621805Y-77250200D01*
X123621800Y-77250199D01*
X123411324Y-77292066D01*
X123232891Y-77411291D01*
X123232889Y-77411294D01*
X123049660Y-77594523D01*
X121028800Y-77594523D01*
X120917627Y-77615442D01*
X120815521Y-77681145D01*
X120747022Y-77781397D01*
X120722923Y-77900400D01*
X120722923Y-78700400D01*
X120743842Y-78811573D01*
X120809545Y-78913679D01*
X120828456Y-78926600D01*
X120639200Y-78926600D01*
X120639200Y-78524600D01*
X120564200Y-78449600D01*
X120014200Y-78449600D01*
X120014200Y-78469600D01*
X119914200Y-78469600D01*
X119914200Y-78449600D01*
X119364200Y-78449600D01*
X119289200Y-78524600D01*
X119289200Y-79059274D01*
X119334872Y-79169537D01*
X119419264Y-79253928D01*
X119529527Y-79299600D01*
X119569472Y-79299600D01*
X119494700Y-79411505D01*
X119478027Y-79414642D01*
X119375921Y-79480345D01*
X119307422Y-79580597D01*
X119283323Y-79699600D01*
X119283323Y-79849600D01*
X118941596Y-79849600D01*
X118200098Y-79108102D01*
X118471632Y-79108339D01*
X118765772Y-78986803D01*
X118991012Y-78761955D01*
X119113061Y-78468028D01*
X119113339Y-78149768D01*
X118991803Y-77855628D01*
X118876303Y-77739926D01*
X119289200Y-77739926D01*
X119289200Y-78274600D01*
X119364200Y-78349600D01*
X119914200Y-78349600D01*
X119914200Y-77574600D01*
X120014200Y-77574600D01*
X120014200Y-78349600D01*
X120564200Y-78349600D01*
X120639200Y-78274600D01*
X120639200Y-77739926D01*
X120593528Y-77629663D01*
X120509136Y-77545272D01*
X120398873Y-77499600D01*
X120089200Y-77499600D01*
X120014200Y-77574600D01*
X119914200Y-77574600D01*
X119839200Y-77499600D01*
X119529527Y-77499600D01*
X119419264Y-77545272D01*
X119334872Y-77629663D01*
X119289200Y-77739926D01*
X118876303Y-77739926D01*
X118766955Y-77630388D01*
X118473028Y-77508339D01*
X118154768Y-77508061D01*
X117860628Y-77629597D01*
X117635388Y-77854445D01*
X117513339Y-78148372D01*
X117513061Y-78466632D01*
X117634597Y-78760772D01*
X117773183Y-78899600D01*
X117330785Y-78899600D01*
X117328758Y-78888827D01*
X117263055Y-78786721D01*
X117162803Y-78718222D01*
X117148629Y-78715352D01*
X117154973Y-78714158D01*
X117257079Y-78648455D01*
X117325578Y-78548203D01*
X117349677Y-78429200D01*
X117349677Y-77679200D01*
X117328758Y-77568027D01*
X117263055Y-77465921D01*
X117162803Y-77397422D01*
X117043800Y-77373323D01*
X116893800Y-77373323D01*
X116893800Y-73861596D01*
X117066798Y-73688598D01*
X117102242Y-73635552D01*
X117164346Y-73542608D01*
X117198600Y-73370400D01*
X117198600Y-71689000D01*
X117164346Y-71516792D01*
X117066798Y-71370802D01*
X116496465Y-70800469D01*
X116516685Y-70786958D01*
X116586000Y-70683222D01*
X116655315Y-70786958D01*
X116914853Y-70960377D01*
X117221000Y-71021273D01*
X117527147Y-70960377D01*
X117786685Y-70786958D01*
X117856000Y-70683222D01*
X117925315Y-70786958D01*
X118091000Y-70897666D01*
X118091000Y-72271802D01*
X117931841Y-72430683D01*
X117840304Y-72651129D01*
X117840096Y-72889824D01*
X117931248Y-73110429D01*
X118099883Y-73279359D01*
X118320329Y-73370896D01*
X118559024Y-73371104D01*
X118779629Y-73279952D01*
X118948559Y-73111317D01*
X119040096Y-72890871D01*
X119040304Y-72652176D01*
X118949152Y-72431571D01*
X118891000Y-72373317D01*
X118891000Y-70897666D01*
X119056685Y-70786958D01*
X119125608Y-70683808D01*
X119332137Y-70880943D01*
X119586713Y-70986384D01*
X119711000Y-70928874D01*
X119711000Y-70575000D01*
X119811000Y-70575000D01*
X119811000Y-70928874D01*
X119811000Y-70928874D01*
G37*
X119811000Y-70928874D02*
X119865936Y-70954294D01*
X119846904Y-71000129D01*
X119846696Y-71238824D01*
X119937848Y-71459429D01*
X120050749Y-71572527D01*
X120053133Y-71844723D01*
X119878200Y-71844723D01*
X119767027Y-71865642D01*
X119664921Y-71931345D01*
X119596422Y-72031597D01*
X119572323Y-72150600D01*
X119572323Y-72600600D01*
X119591830Y-72704271D01*
X119572323Y-72800600D01*
X119572323Y-73250600D01*
X119591830Y-73354271D01*
X119572323Y-73450600D01*
X119572323Y-73900600D01*
X119591830Y-74004271D01*
X119572323Y-74100600D01*
X119572323Y-74550600D01*
X119577027Y-74575600D01*
X119398531Y-74575600D01*
X119296671Y-74533304D01*
X119057976Y-74533096D01*
X118837371Y-74624248D01*
X118668441Y-74792883D01*
X118576904Y-75013329D01*
X118576696Y-75252024D01*
X118667848Y-75472629D01*
X118836483Y-75641559D01*
X119056929Y-75733096D01*
X119295624Y-75733304D01*
X119516229Y-75642152D01*
X119572323Y-75586156D01*
X119572323Y-75850600D01*
X119591830Y-75954271D01*
X119572323Y-76050600D01*
X119572323Y-76500600D01*
X119591830Y-76604271D01*
X119572323Y-76700600D01*
X119572323Y-77150600D01*
X119593242Y-77261773D01*
X119658945Y-77363879D01*
X119759197Y-77432378D01*
X119878200Y-77456477D01*
X121378200Y-77456477D01*
X121489373Y-77435558D01*
X121591479Y-77369855D01*
X121621717Y-77325600D01*
X122400900Y-77325600D01*
X122553974Y-77295152D01*
X122683743Y-77208443D01*
X122914415Y-76977771D01*
X123067524Y-76977904D01*
X123288129Y-76886752D01*
X123457059Y-76718117D01*
X123548596Y-76497671D01*
X123548624Y-76465527D01*
X124341400Y-76465527D01*
X124341400Y-76725200D01*
X124416400Y-76800200D01*
X125371400Y-76800200D01*
X125371400Y-76300200D01*
X125296400Y-76225200D01*
X124581726Y-76225200D01*
X124471463Y-76270872D01*
X124387072Y-76355264D01*
X124341400Y-76465527D01*
X123548624Y-76465527D01*
X123548804Y-76258976D01*
X123492694Y-76123179D01*
X123654329Y-76190296D01*
X123893024Y-76190504D01*
X124113629Y-76099352D01*
X124282559Y-75930717D01*
X124374096Y-75710271D01*
X124374304Y-75471576D01*
X124283152Y-75250971D01*
X124114517Y-75082041D01*
X123894071Y-74990504D01*
X123655376Y-74990296D01*
X123434771Y-75081448D01*
X123265841Y-75250083D01*
X123174304Y-75470529D01*
X123174096Y-75709224D01*
X123230206Y-75845021D01*
X123068571Y-75777904D01*
X122829876Y-75777696D01*
X122609271Y-75868848D01*
X122537385Y-75940608D01*
X122530552Y-75924071D01*
X122404893Y-75798193D01*
X122812443Y-75390643D01*
X122899152Y-75260874D01*
X122929601Y-75107800D01*
X122929600Y-75107795D01*
X122929600Y-75081677D01*
X122979600Y-75081677D01*
X123090773Y-75060758D01*
X123192879Y-74995055D01*
X123261378Y-74894803D01*
X123285477Y-74775800D01*
X123285477Y-73981781D01*
X123305745Y-74013279D01*
X123405997Y-74081778D01*
X123525000Y-74105877D01*
X125075000Y-74105877D01*
X125186173Y-74084958D01*
X125288279Y-74019255D01*
X125343368Y-73938628D01*
X126099879Y-73938628D01*
X126206223Y-74196000D01*
X126402964Y-74393085D01*
X126660150Y-74499878D01*
X126938628Y-74500121D01*
X127196000Y-74393777D01*
X127393085Y-74197036D01*
X127499878Y-73939850D01*
X127500121Y-73661372D01*
X127393777Y-73404000D01*
X127197036Y-73206915D01*
X126939850Y-73100122D01*
X126661372Y-73099879D01*
X126404000Y-73206223D01*
X126206915Y-73402964D01*
X126100122Y-73660150D01*
X126099879Y-73938628D01*
X125343368Y-73938628D01*
X125356778Y-73919003D01*
X125380877Y-73800000D01*
X125380877Y-72600000D01*
X125359958Y-72488827D01*
X125294255Y-72386721D01*
X125245712Y-72353553D01*
X125329328Y-72269936D01*
X125375000Y-72159673D01*
X125375000Y-71625000D01*
X125300000Y-71550000D01*
X124350000Y-71550000D01*
X124350000Y-71570000D01*
X124250000Y-71570000D01*
X124250000Y-71550000D01*
X124230000Y-71550000D01*
X124230000Y-71450000D01*
X124250000Y-71450000D01*
X124250000Y-70675000D01*
X124350000Y-70675000D01*
X124350000Y-71450000D01*
X125300000Y-71450000D01*
X125375000Y-71375000D01*
X125375000Y-70840327D01*
X125329328Y-70730064D01*
X125244937Y-70645672D01*
X125134674Y-70600000D01*
X124425000Y-70600000D01*
X124350000Y-70675000D01*
X124250000Y-70675000D01*
X124175000Y-70600000D01*
X123465326Y-70600000D01*
X123383626Y-70633841D01*
X123383677Y-70575000D01*
X126177003Y-70575000D01*
X126100122Y-70760150D01*
X126099879Y-71038628D01*
X126206223Y-71296000D01*
X126402964Y-71493085D01*
X126660150Y-71599878D01*
X126938628Y-71600121D01*
X127196000Y-71493777D01*
X127393085Y-71297036D01*
X127499878Y-71039850D01*
X127500121Y-70761372D01*
X127423114Y-70575000D01*
X130025000Y-70575000D01*
X130025000Y-70594123D01*
X128575000Y-70594123D01*
X128463827Y-70615042D01*
X128361721Y-70680745D01*
X128293222Y-70780997D01*
X128269123Y-70900000D01*
X128269123Y-72100000D01*
X128290042Y-72211173D01*
X128355745Y-72313279D01*
X128409494Y-72350004D01*
X128361721Y-72380745D01*
X128293222Y-72480997D01*
X128269123Y-72600000D01*
X128269123Y-73800000D01*
X128290042Y-73911173D01*
X128355745Y-74013279D01*
X128455997Y-74081778D01*
X128575000Y-74105877D01*
X130025000Y-74105877D01*
X130025000Y-74305035D01*
X129822242Y-74440515D01*
X129648823Y-74700053D01*
X129587927Y-75006200D01*
X129648823Y-75312347D01*
X129822242Y-75571885D01*
X130025000Y-75707365D01*
X130025000Y-75752835D01*
X129822242Y-75888315D01*
X129648823Y-76147853D01*
X129587927Y-76454000D01*
X129648823Y-76760147D01*
X129822242Y-77019685D01*
X130025000Y-77155165D01*
X130025000Y-78129794D01*
X129838642Y-78254315D01*
X129665223Y-78513853D01*
X129604327Y-78820000D01*
X129665223Y-79126147D01*
X129838642Y-79385685D01*
X130025000Y-79510206D01*
X130025000Y-81173112D01*
X129828642Y-81304315D01*
X129818162Y-81320000D01*
X129508819Y-81320000D01*
X129480455Y-81275921D01*
X129380203Y-81207422D01*
X129261200Y-81183323D01*
X129211200Y-81183323D01*
X129211200Y-80883800D01*
X129169334Y-80673324D01*
X129050109Y-80494891D01*
X129050106Y-80494889D01*
X128531909Y-79976691D01*
X128353476Y-79857466D01*
X128333802Y-79853553D01*
X128324558Y-79804427D01*
X128258855Y-79702321D01*
X128195829Y-79659257D01*
X128404240Y-79450845D01*
X128404243Y-79450843D01*
X128450859Y-79381077D01*
X128901400Y-79381077D01*
X129012573Y-79360158D01*
X129114679Y-79294455D01*
X129183178Y-79194203D01*
X129207277Y-79075200D01*
X129207277Y-78425200D01*
X129186358Y-78314027D01*
X129161677Y-78275671D01*
X129183178Y-78244203D01*
X129207277Y-78125200D01*
X129207277Y-77475200D01*
X129186358Y-77364027D01*
X129161677Y-77325671D01*
X129183178Y-77294203D01*
X129207277Y-77175200D01*
X129207277Y-76525200D01*
X129186358Y-76414027D01*
X129120655Y-76311921D01*
X129020403Y-76243422D01*
X128901400Y-76219323D01*
X128705600Y-76219323D01*
X128705600Y-75915677D01*
X128905600Y-75915677D01*
X129016773Y-75894758D01*
X129118879Y-75829055D01*
X129187378Y-75728803D01*
X129211477Y-75609800D01*
X129211477Y-74859800D01*
X129190558Y-74748627D01*
X129124855Y-74646521D01*
X129024603Y-74578022D01*
X128905600Y-74553923D01*
X127705600Y-74553923D01*
X127594427Y-74574842D01*
X127492321Y-74640545D01*
X127423822Y-74740797D01*
X127399723Y-74859800D01*
X127399723Y-75609800D01*
X127420642Y-75720973D01*
X127486345Y-75823079D01*
X127586597Y-75891578D01*
X127705600Y-75915677D01*
X127905600Y-75915677D01*
X127905600Y-76219323D01*
X127341400Y-76219323D01*
X127230227Y-76240242D01*
X127128121Y-76305945D01*
X127091660Y-76359308D01*
X127090152Y-76351727D01*
X127003443Y-76221957D01*
X126805600Y-76024114D01*
X126805600Y-75915677D01*
X127005600Y-75915677D01*
X127116773Y-75894758D01*
X127218879Y-75829055D01*
X127287378Y-75728803D01*
X127311477Y-75609800D01*
X127311477Y-74859800D01*
X127290558Y-74748627D01*
X127224855Y-74646521D01*
X127124603Y-74578022D01*
X127005600Y-74553923D01*
X125805600Y-74553923D01*
X125694427Y-74574842D01*
X125592321Y-74640545D01*
X125523822Y-74740797D01*
X125499723Y-74859800D01*
X125499723Y-75609800D01*
X125520642Y-75720973D01*
X125586345Y-75823079D01*
X125686597Y-75891578D01*
X125805600Y-75915677D01*
X126005600Y-75915677D01*
X126005600Y-76189800D01*
X126012641Y-76225200D01*
X125546400Y-76225200D01*
X125471400Y-76300200D01*
X125471400Y-76800200D01*
X125491400Y-76800200D01*
X125491400Y-76900200D01*
X125471400Y-76900200D01*
X125471400Y-76920200D01*
X125371400Y-76920200D01*
X125371400Y-76900200D01*
X124416400Y-76900200D01*
X124341400Y-76975200D01*
X124341400Y-77234873D01*
X124347749Y-77250200D01*
X123621805Y-77250200D01*
X123621800Y-77250199D01*
X123411324Y-77292066D01*
X123232891Y-77411291D01*
X123232889Y-77411294D01*
X123049660Y-77594523D01*
X121028800Y-77594523D01*
X120917627Y-77615442D01*
X120815521Y-77681145D01*
X120747022Y-77781397D01*
X120722923Y-77900400D01*
X120722923Y-78700400D01*
X120743842Y-78811573D01*
X120809545Y-78913679D01*
X120828456Y-78926600D01*
X120639200Y-78926600D01*
X120639200Y-78524600D01*
X120564200Y-78449600D01*
X120014200Y-78449600D01*
X120014200Y-78469600D01*
X119914200Y-78469600D01*
X119914200Y-78449600D01*
X119364200Y-78449600D01*
X119289200Y-78524600D01*
X119289200Y-79059274D01*
X119334872Y-79169537D01*
X119419264Y-79253928D01*
X119529527Y-79299600D01*
X119569472Y-79299600D01*
X119494700Y-79411505D01*
X119478027Y-79414642D01*
X119375921Y-79480345D01*
X119307422Y-79580597D01*
X119283323Y-79699600D01*
X119283323Y-79849600D01*
X118941596Y-79849600D01*
X118200098Y-79108102D01*
X118471632Y-79108339D01*
X118765772Y-78986803D01*
X118991012Y-78761955D01*
X119113061Y-78468028D01*
X119113339Y-78149768D01*
X118991803Y-77855628D01*
X118876303Y-77739926D01*
X119289200Y-77739926D01*
X119289200Y-78274600D01*
X119364200Y-78349600D01*
X119914200Y-78349600D01*
X119914200Y-77574600D01*
X120014200Y-77574600D01*
X120014200Y-78349600D01*
X120564200Y-78349600D01*
X120639200Y-78274600D01*
X120639200Y-77739926D01*
X120593528Y-77629663D01*
X120509136Y-77545272D01*
X120398873Y-77499600D01*
X120089200Y-77499600D01*
X120014200Y-77574600D01*
X119914200Y-77574600D01*
X119839200Y-77499600D01*
X119529527Y-77499600D01*
X119419264Y-77545272D01*
X119334872Y-77629663D01*
X119289200Y-77739926D01*
X118876303Y-77739926D01*
X118766955Y-77630388D01*
X118473028Y-77508339D01*
X118154768Y-77508061D01*
X117860628Y-77629597D01*
X117635388Y-77854445D01*
X117513339Y-78148372D01*
X117513061Y-78466632D01*
X117634597Y-78760772D01*
X117773183Y-78899600D01*
X117330785Y-78899600D01*
X117328758Y-78888827D01*
X117263055Y-78786721D01*
X117162803Y-78718222D01*
X117148629Y-78715352D01*
X117154973Y-78714158D01*
X117257079Y-78648455D01*
X117325578Y-78548203D01*
X117349677Y-78429200D01*
X117349677Y-77679200D01*
X117328758Y-77568027D01*
X117263055Y-77465921D01*
X117162803Y-77397422D01*
X117043800Y-77373323D01*
X116893800Y-77373323D01*
X116893800Y-73861596D01*
X117066798Y-73688598D01*
X117102242Y-73635552D01*
X117164346Y-73542608D01*
X117198600Y-73370400D01*
X117198600Y-71689000D01*
X117164346Y-71516792D01*
X117066798Y-71370802D01*
X116496465Y-70800469D01*
X116516685Y-70786958D01*
X116586000Y-70683222D01*
X116655315Y-70786958D01*
X116914853Y-70960377D01*
X117221000Y-71021273D01*
X117527147Y-70960377D01*
X117786685Y-70786958D01*
X117856000Y-70683222D01*
X117925315Y-70786958D01*
X118091000Y-70897666D01*
X118091000Y-72271802D01*
X117931841Y-72430683D01*
X117840304Y-72651129D01*
X117840096Y-72889824D01*
X117931248Y-73110429D01*
X118099883Y-73279359D01*
X118320329Y-73370896D01*
X118559024Y-73371104D01*
X118779629Y-73279952D01*
X118948559Y-73111317D01*
X119040096Y-72890871D01*
X119040304Y-72652176D01*
X118949152Y-72431571D01*
X118891000Y-72373317D01*
X118891000Y-70897666D01*
X119056685Y-70786958D01*
X119125608Y-70683808D01*
X119332137Y-70880943D01*
X119586713Y-70986384D01*
X119711000Y-70928874D01*
X119711000Y-70575000D01*
X119811000Y-70575000D01*
X119811000Y-70928874D01*
G36*
X107900122Y-70760150D02*
X107899879Y-71038628D01*
X108006223Y-71296000D01*
X108202964Y-71493085D01*
X108460150Y-71599878D01*
X108738628Y-71600121D01*
X108996000Y-71493777D01*
X109099400Y-71390557D01*
X109099400Y-73309458D01*
X108997036Y-73206915D01*
X108739850Y-73100122D01*
X108461372Y-73099879D01*
X108204000Y-73206223D01*
X108042440Y-73367501D01*
X108092696Y-73246471D01*
X108092904Y-73007776D01*
X108001752Y-72787171D01*
X107833117Y-72618241D01*
X107612671Y-72526704D01*
X107373976Y-72526496D01*
X107180877Y-72606283D01*
X107180877Y-72600000D01*
X107159958Y-72488827D01*
X107094255Y-72386721D01*
X107045712Y-72353553D01*
X107129328Y-72269936D01*
X107175000Y-72159673D01*
X107175000Y-71625000D01*
X107100000Y-71550000D01*
X106150000Y-71550000D01*
X106150000Y-71570000D01*
X106050000Y-71570000D01*
X106050000Y-71550000D01*
X106030000Y-71550000D01*
X106030000Y-71450000D01*
X106050000Y-71450000D01*
X106050000Y-70675000D01*
X106150000Y-70675000D01*
X106150000Y-71450000D01*
X107100000Y-71450000D01*
X107175000Y-71375000D01*
X107175000Y-70840327D01*
X107129328Y-70730064D01*
X107044937Y-70645672D01*
X106934674Y-70600000D01*
X106225000Y-70600000D01*
X106150000Y-70675000D01*
X106050000Y-70675000D01*
X105975000Y-70600000D01*
X105375000Y-70600000D01*
X105375000Y-70575000D01*
X107977003Y-70575000D01*
X107900122Y-70760150D01*
X107900122Y-70760150D01*
G37*
X107900122Y-70760150D02*
X107899879Y-71038628D01*
X108006223Y-71296000D01*
X108202964Y-71493085D01*
X108460150Y-71599878D01*
X108738628Y-71600121D01*
X108996000Y-71493777D01*
X109099400Y-71390557D01*
X109099400Y-73309458D01*
X108997036Y-73206915D01*
X108739850Y-73100122D01*
X108461372Y-73099879D01*
X108204000Y-73206223D01*
X108042440Y-73367501D01*
X108092696Y-73246471D01*
X108092904Y-73007776D01*
X108001752Y-72787171D01*
X107833117Y-72618241D01*
X107612671Y-72526704D01*
X107373976Y-72526496D01*
X107180877Y-72606283D01*
X107180877Y-72600000D01*
X107159958Y-72488827D01*
X107094255Y-72386721D01*
X107045712Y-72353553D01*
X107129328Y-72269936D01*
X107175000Y-72159673D01*
X107175000Y-71625000D01*
X107100000Y-71550000D01*
X106150000Y-71550000D01*
X106150000Y-71570000D01*
X106050000Y-71570000D01*
X106050000Y-71550000D01*
X106030000Y-71550000D01*
X106030000Y-71450000D01*
X106050000Y-71450000D01*
X106050000Y-70675000D01*
X106150000Y-70675000D01*
X106150000Y-71450000D01*
X107100000Y-71450000D01*
X107175000Y-71375000D01*
X107175000Y-70840327D01*
X107129328Y-70730064D01*
X107044937Y-70645672D01*
X106934674Y-70600000D01*
X106225000Y-70600000D01*
X106150000Y-70675000D01*
X106050000Y-70675000D01*
X105975000Y-70600000D01*
X105375000Y-70600000D01*
X105375000Y-70575000D01*
X107977003Y-70575000D01*
X107900122Y-70760150D01*
M02*
