G04 #@! TF.FileFunction,Copper,L2,Bot,Signal*
%FSLAX46Y46*%
G04 Gerber Fmt 4.6, Leading zero omitted, Abs format (unit mm)*
G04 Created by KiCad (PCBNEW 4.0.7) date Thursday, August 02, 2018 'PMt' 03:47:54 PM*
%MOMM*%
%LPD*%
G01*
G04 APERTURE LIST*
%ADD10C,0.100000*%
%ADD11R,0.800000X0.800000*%
%ADD12O,1.000000X1.000000*%
%ADD13C,0.800000*%
%ADD14C,0.600000*%
%ADD15C,0.500000*%
%ADD16C,0.200000*%
G04 APERTURE END LIST*
D10*
D11*
X109850000Y-71375000D03*
X111450000Y-71375000D03*
X125620000Y-71410000D03*
X124020000Y-71410000D03*
D12*
X105003600Y-77851000D03*
X104978200Y-79781400D03*
X119761000Y-70205600D03*
X118491000Y-70205600D03*
X117221000Y-70205600D03*
X115951000Y-70205600D03*
X130420000Y-78820000D03*
X130410000Y-81870000D03*
X130420000Y-80350000D03*
X130403600Y-75006200D03*
X130403600Y-76454000D03*
D13*
X108600000Y-73800000D03*
X108600000Y-70900000D03*
X126800000Y-73800000D03*
X126800000Y-70900000D03*
D14*
X125222000Y-82143600D03*
X129286000Y-80314800D03*
X127609600Y-72059800D03*
X119303800Y-73914000D03*
X107746800Y-71907400D03*
X111963200Y-82092800D03*
X122605800Y-82245200D03*
X124815600Y-74726800D03*
X126720600Y-78740000D03*
X116509800Y-81280000D03*
X106502200Y-77724000D03*
X126390400Y-80340200D03*
X122504200Y-79527400D03*
X123774200Y-75590400D03*
X122783600Y-70662800D03*
X118440200Y-72771000D03*
X116078000Y-72771000D03*
X107492800Y-73126600D03*
X111937800Y-75107800D03*
X122529600Y-76352400D03*
X119176800Y-75133200D03*
X111912400Y-76301600D03*
X120446800Y-71120000D03*
D15*
X130420000Y-80350000D02*
X129321200Y-80350000D01*
X129321200Y-80350000D02*
X129286000Y-80314800D01*
X106502200Y-79883000D02*
X106553000Y-79883000D01*
X106553000Y-79883000D02*
X107950000Y-81280000D01*
X116509800Y-81280000D02*
X127533400Y-81280000D01*
X127736600Y-78740000D02*
X126720600Y-78740000D01*
X128295400Y-79298800D02*
X127736600Y-78740000D01*
X128295400Y-80518000D02*
X128295400Y-79298800D01*
X127533400Y-81280000D02*
X128295400Y-80518000D01*
X107950000Y-81280000D02*
X116509800Y-81280000D01*
X106502200Y-77724000D02*
X106502200Y-79883000D01*
X122504200Y-79527400D02*
X122504200Y-79705200D01*
X126390400Y-80340200D02*
X123410831Y-80357831D01*
X123156831Y-80357831D02*
X123410831Y-80357831D01*
X122504200Y-79705200D02*
X123156831Y-80357831D01*
D16*
X124020000Y-72694800D02*
X124020000Y-72855400D01*
X123774200Y-73101200D02*
X123774200Y-75590400D01*
X124020000Y-72855400D02*
X123774200Y-73101200D01*
X109850000Y-71831200D02*
X109850000Y-71851600D01*
X110134400Y-72136000D02*
X110185200Y-72136000D01*
X109850000Y-71851600D02*
X110134400Y-72136000D01*
X109850000Y-71375000D02*
X109850000Y-71831200D01*
X110185200Y-72136000D02*
X124020000Y-72136000D01*
X123774200Y-75590400D02*
X128625600Y-75590400D01*
X128625600Y-75590400D02*
X129489200Y-76454000D01*
X129489200Y-76454000D02*
X130403600Y-76454000D01*
X124020000Y-72694800D02*
X124020000Y-72136000D01*
X124020000Y-72136000D02*
X124020000Y-71410000D01*
X111450000Y-71375000D02*
X112999202Y-71375000D01*
X122783600Y-71374000D02*
X122783600Y-70662800D01*
X122421602Y-71735998D02*
X122783600Y-71374000D01*
X113360200Y-71735998D02*
X122421602Y-71735998D01*
X112999202Y-71375000D02*
X113360200Y-71735998D01*
X125620000Y-70857600D02*
X125620000Y-71410000D01*
X125349000Y-70586600D02*
X125620000Y-70857600D01*
X122859800Y-70586600D02*
X125349000Y-70586600D01*
X122783600Y-70662800D02*
X122859800Y-70586600D01*
X125620000Y-71410000D02*
X125620000Y-72330800D01*
X128143000Y-72745600D02*
X130403600Y-75006200D01*
X126034800Y-72745600D02*
X128143000Y-72745600D01*
X125620000Y-72330800D02*
X126034800Y-72745600D01*
X116078000Y-72771000D02*
X118440200Y-72771000D01*
X107492800Y-74345800D02*
X107492800Y-73126600D01*
X108254800Y-75107800D02*
X107492800Y-74345800D01*
X111937800Y-75107800D02*
X108254800Y-75107800D01*
X127990600Y-76352400D02*
X130420000Y-78781800D01*
X122529600Y-76352400D02*
X127990600Y-76352400D01*
X130420000Y-78781800D02*
X130420000Y-78820000D01*
X119176800Y-75971400D02*
X119176800Y-75133200D01*
X118846600Y-76301600D02*
X119176800Y-75971400D01*
X111912400Y-76301600D02*
X118846600Y-76301600D01*
X117221000Y-70205600D02*
X118135400Y-71120000D01*
X118110000Y-71094600D02*
X118110000Y-71120000D01*
X118135400Y-71120000D02*
X118110000Y-71094600D01*
X120446800Y-71120000D02*
X118110000Y-71120000D01*
G36*
X107900122Y-70760150D02*
X107899879Y-71038628D01*
X108006223Y-71296000D01*
X108202964Y-71493085D01*
X108460150Y-71599878D01*
X108738628Y-71600121D01*
X108996000Y-71493777D01*
X109144123Y-71345913D01*
X109144123Y-71775000D01*
X109165042Y-71886173D01*
X109230745Y-71988279D01*
X109330997Y-72056778D01*
X109450000Y-72080877D01*
X109531365Y-72080877D01*
X109567157Y-72134443D01*
X109851555Y-72418840D01*
X109851557Y-72418843D01*
X109981327Y-72505552D01*
X110134400Y-72536000D01*
X115525910Y-72536000D01*
X115478104Y-72651129D01*
X115477896Y-72889824D01*
X115569048Y-73110429D01*
X115737683Y-73279359D01*
X115958129Y-73370896D01*
X116196824Y-73371104D01*
X116417429Y-73279952D01*
X116526572Y-73171000D01*
X117991713Y-73171000D01*
X118099883Y-73279359D01*
X118320329Y-73370896D01*
X118559024Y-73371104D01*
X118779629Y-73279952D01*
X118948559Y-73111317D01*
X119040096Y-72890871D01*
X119040304Y-72652176D01*
X118992301Y-72536000D01*
X123620000Y-72536000D01*
X123620000Y-72689715D01*
X123491357Y-72818357D01*
X123404648Y-72948126D01*
X123398777Y-72977643D01*
X123374200Y-73101200D01*
X123374200Y-75141913D01*
X123265841Y-75250083D01*
X123174304Y-75470529D01*
X123174096Y-75709224D01*
X123265248Y-75929829D01*
X123287780Y-75952400D01*
X122978087Y-75952400D01*
X122869917Y-75844041D01*
X122649471Y-75752504D01*
X122410776Y-75752296D01*
X122190171Y-75843448D01*
X122021241Y-76012083D01*
X121929704Y-76232529D01*
X121929496Y-76471224D01*
X122020648Y-76691829D01*
X122189283Y-76860759D01*
X122409729Y-76952296D01*
X122648424Y-76952504D01*
X122869029Y-76861352D01*
X122978172Y-76752400D01*
X127824914Y-76752400D01*
X129652140Y-78579625D01*
X129604327Y-78820000D01*
X129665223Y-79126147D01*
X129838642Y-79385685D01*
X130025000Y-79510206D01*
X130025000Y-81173112D01*
X129828642Y-81304315D01*
X129655223Y-81563853D01*
X129594327Y-81870000D01*
X129655223Y-82176147D01*
X129828642Y-82435685D01*
X129962310Y-82525000D01*
X105375000Y-82525000D01*
X105375000Y-80470404D01*
X105559558Y-80347085D01*
X105732977Y-80087547D01*
X105793873Y-79781400D01*
X105732977Y-79475253D01*
X105559558Y-79215715D01*
X105375000Y-79092396D01*
X105375000Y-78556975D01*
X105584958Y-78416685D01*
X105758377Y-78157147D01*
X105819273Y-77851000D01*
X105817647Y-77842824D01*
X105902096Y-77842824D01*
X105952200Y-77964085D01*
X105952200Y-79883000D01*
X105994066Y-80093476D01*
X106113291Y-80271909D01*
X106266385Y-80374203D01*
X107561089Y-81668906D01*
X107561091Y-81668909D01*
X107739524Y-81788134D01*
X107950000Y-81830000D01*
X116269766Y-81830000D01*
X116389929Y-81879896D01*
X116628624Y-81880104D01*
X116749885Y-81830000D01*
X127533400Y-81830000D01*
X127743876Y-81788134D01*
X127922309Y-81668909D01*
X128684309Y-80906909D01*
X128803534Y-80728476D01*
X128845401Y-80518000D01*
X128845400Y-80517995D01*
X128845400Y-79298805D01*
X128845401Y-79298800D01*
X128803534Y-79088324D01*
X128757391Y-79019266D01*
X128684309Y-78909891D01*
X128684306Y-78909889D01*
X128125509Y-78351091D01*
X127947076Y-78231866D01*
X127736600Y-78190000D01*
X126960634Y-78190000D01*
X126840471Y-78140104D01*
X126601776Y-78139896D01*
X126381171Y-78231048D01*
X126212241Y-78399683D01*
X126120704Y-78620129D01*
X126120496Y-78858824D01*
X126211648Y-79079429D01*
X126380283Y-79248359D01*
X126600729Y-79339896D01*
X126839424Y-79340104D01*
X126960685Y-79290000D01*
X127508782Y-79290000D01*
X127745400Y-79526617D01*
X127745400Y-80290182D01*
X127305582Y-80730000D01*
X126849189Y-80730000D01*
X126898759Y-80680517D01*
X126990296Y-80460071D01*
X126990504Y-80221376D01*
X126899352Y-80000771D01*
X126730717Y-79831841D01*
X126510271Y-79740304D01*
X126271576Y-79740096D01*
X126146849Y-79791632D01*
X123409267Y-79807831D01*
X123384648Y-79807831D01*
X123104200Y-79527383D01*
X123104304Y-79408576D01*
X123013152Y-79187971D01*
X122844517Y-79019041D01*
X122624071Y-78927504D01*
X122385376Y-78927296D01*
X122164771Y-79018448D01*
X121995841Y-79187083D01*
X121904304Y-79407529D01*
X121904096Y-79646224D01*
X121978090Y-79825303D01*
X121996066Y-79915676D01*
X122115291Y-80094109D01*
X122751183Y-80730000D01*
X116749834Y-80730000D01*
X116629671Y-80680104D01*
X116390976Y-80679896D01*
X116269715Y-80730000D01*
X108177817Y-80730000D01*
X107052200Y-79604382D01*
X107052200Y-78466632D01*
X117513061Y-78466632D01*
X117634597Y-78760772D01*
X117859445Y-78986012D01*
X118153372Y-79108061D01*
X118471632Y-79108339D01*
X118765772Y-78986803D01*
X118991012Y-78761955D01*
X119113061Y-78468028D01*
X119113339Y-78149768D01*
X118991803Y-77855628D01*
X118766955Y-77630388D01*
X118473028Y-77508339D01*
X118154768Y-77508061D01*
X117860628Y-77629597D01*
X117635388Y-77854445D01*
X117513339Y-78148372D01*
X117513061Y-78466632D01*
X107052200Y-78466632D01*
X107052200Y-77964034D01*
X107102096Y-77843871D01*
X107102304Y-77605176D01*
X107011152Y-77384571D01*
X106842517Y-77215641D01*
X106622071Y-77124104D01*
X106383376Y-77123896D01*
X106162771Y-77215048D01*
X105993841Y-77383683D01*
X105902304Y-77604129D01*
X105902096Y-77842824D01*
X105817647Y-77842824D01*
X105758377Y-77544853D01*
X105584958Y-77285315D01*
X105375000Y-77145025D01*
X105375000Y-73245424D01*
X106892696Y-73245424D01*
X106983848Y-73466029D01*
X107092800Y-73575172D01*
X107092800Y-74345800D01*
X107123248Y-74498874D01*
X107209957Y-74628643D01*
X107971957Y-75390643D01*
X108101726Y-75477352D01*
X108254800Y-75507801D01*
X108254805Y-75507800D01*
X111489313Y-75507800D01*
X111597483Y-75616159D01*
X111803018Y-75701504D01*
X111793576Y-75701496D01*
X111572971Y-75792648D01*
X111404041Y-75961283D01*
X111312504Y-76181729D01*
X111312296Y-76420424D01*
X111403448Y-76641029D01*
X111572083Y-76809959D01*
X111792529Y-76901496D01*
X112031224Y-76901704D01*
X112251829Y-76810552D01*
X112360972Y-76701600D01*
X118846600Y-76701600D01*
X118999674Y-76671152D01*
X119129443Y-76584443D01*
X119459640Y-76254245D01*
X119459643Y-76254243D01*
X119546352Y-76124473D01*
X119576800Y-75971400D01*
X119576800Y-75581687D01*
X119685159Y-75473517D01*
X119776696Y-75253071D01*
X119776904Y-75014376D01*
X119685752Y-74793771D01*
X119517117Y-74624841D01*
X119296671Y-74533304D01*
X119057976Y-74533096D01*
X118837371Y-74624248D01*
X118668441Y-74792883D01*
X118576904Y-75013329D01*
X118576696Y-75252024D01*
X118667848Y-75472629D01*
X118776800Y-75581772D01*
X118776800Y-75805715D01*
X118680914Y-75901600D01*
X112360887Y-75901600D01*
X112252717Y-75793241D01*
X112047182Y-75707896D01*
X112056624Y-75707904D01*
X112277229Y-75616752D01*
X112446159Y-75448117D01*
X112537696Y-75227671D01*
X112537904Y-74988976D01*
X112446752Y-74768371D01*
X112278117Y-74599441D01*
X112057671Y-74507904D01*
X111818976Y-74507696D01*
X111598371Y-74598848D01*
X111489228Y-74707800D01*
X108420486Y-74707800D01*
X107892800Y-74180114D01*
X107892800Y-73575087D01*
X107965634Y-73502380D01*
X107900122Y-73660150D01*
X107899879Y-73938628D01*
X108006223Y-74196000D01*
X108202964Y-74393085D01*
X108460150Y-74499878D01*
X108738628Y-74500121D01*
X108996000Y-74393777D01*
X109193085Y-74197036D01*
X109299878Y-73939850D01*
X109300121Y-73661372D01*
X109193777Y-73404000D01*
X108997036Y-73206915D01*
X108739850Y-73100122D01*
X108461372Y-73099879D01*
X108204000Y-73206223D01*
X108042440Y-73367501D01*
X108092696Y-73246471D01*
X108092904Y-73007776D01*
X108001752Y-72787171D01*
X107833117Y-72618241D01*
X107612671Y-72526704D01*
X107373976Y-72526496D01*
X107153371Y-72617648D01*
X106984441Y-72786283D01*
X106892904Y-73006729D01*
X106892696Y-73245424D01*
X105375000Y-73245424D01*
X105375000Y-70575000D01*
X107977003Y-70575000D01*
X107900122Y-70760150D01*
X107900122Y-70760150D01*
G37*
X107900122Y-70760150D02*
X107899879Y-71038628D01*
X108006223Y-71296000D01*
X108202964Y-71493085D01*
X108460150Y-71599878D01*
X108738628Y-71600121D01*
X108996000Y-71493777D01*
X109144123Y-71345913D01*
X109144123Y-71775000D01*
X109165042Y-71886173D01*
X109230745Y-71988279D01*
X109330997Y-72056778D01*
X109450000Y-72080877D01*
X109531365Y-72080877D01*
X109567157Y-72134443D01*
X109851555Y-72418840D01*
X109851557Y-72418843D01*
X109981327Y-72505552D01*
X110134400Y-72536000D01*
X115525910Y-72536000D01*
X115478104Y-72651129D01*
X115477896Y-72889824D01*
X115569048Y-73110429D01*
X115737683Y-73279359D01*
X115958129Y-73370896D01*
X116196824Y-73371104D01*
X116417429Y-73279952D01*
X116526572Y-73171000D01*
X117991713Y-73171000D01*
X118099883Y-73279359D01*
X118320329Y-73370896D01*
X118559024Y-73371104D01*
X118779629Y-73279952D01*
X118948559Y-73111317D01*
X119040096Y-72890871D01*
X119040304Y-72652176D01*
X118992301Y-72536000D01*
X123620000Y-72536000D01*
X123620000Y-72689715D01*
X123491357Y-72818357D01*
X123404648Y-72948126D01*
X123398777Y-72977643D01*
X123374200Y-73101200D01*
X123374200Y-75141913D01*
X123265841Y-75250083D01*
X123174304Y-75470529D01*
X123174096Y-75709224D01*
X123265248Y-75929829D01*
X123287780Y-75952400D01*
X122978087Y-75952400D01*
X122869917Y-75844041D01*
X122649471Y-75752504D01*
X122410776Y-75752296D01*
X122190171Y-75843448D01*
X122021241Y-76012083D01*
X121929704Y-76232529D01*
X121929496Y-76471224D01*
X122020648Y-76691829D01*
X122189283Y-76860759D01*
X122409729Y-76952296D01*
X122648424Y-76952504D01*
X122869029Y-76861352D01*
X122978172Y-76752400D01*
X127824914Y-76752400D01*
X129652140Y-78579625D01*
X129604327Y-78820000D01*
X129665223Y-79126147D01*
X129838642Y-79385685D01*
X130025000Y-79510206D01*
X130025000Y-81173112D01*
X129828642Y-81304315D01*
X129655223Y-81563853D01*
X129594327Y-81870000D01*
X129655223Y-82176147D01*
X129828642Y-82435685D01*
X129962310Y-82525000D01*
X105375000Y-82525000D01*
X105375000Y-80470404D01*
X105559558Y-80347085D01*
X105732977Y-80087547D01*
X105793873Y-79781400D01*
X105732977Y-79475253D01*
X105559558Y-79215715D01*
X105375000Y-79092396D01*
X105375000Y-78556975D01*
X105584958Y-78416685D01*
X105758377Y-78157147D01*
X105819273Y-77851000D01*
X105817647Y-77842824D01*
X105902096Y-77842824D01*
X105952200Y-77964085D01*
X105952200Y-79883000D01*
X105994066Y-80093476D01*
X106113291Y-80271909D01*
X106266385Y-80374203D01*
X107561089Y-81668906D01*
X107561091Y-81668909D01*
X107739524Y-81788134D01*
X107950000Y-81830000D01*
X116269766Y-81830000D01*
X116389929Y-81879896D01*
X116628624Y-81880104D01*
X116749885Y-81830000D01*
X127533400Y-81830000D01*
X127743876Y-81788134D01*
X127922309Y-81668909D01*
X128684309Y-80906909D01*
X128803534Y-80728476D01*
X128845401Y-80518000D01*
X128845400Y-80517995D01*
X128845400Y-79298805D01*
X128845401Y-79298800D01*
X128803534Y-79088324D01*
X128757391Y-79019266D01*
X128684309Y-78909891D01*
X128684306Y-78909889D01*
X128125509Y-78351091D01*
X127947076Y-78231866D01*
X127736600Y-78190000D01*
X126960634Y-78190000D01*
X126840471Y-78140104D01*
X126601776Y-78139896D01*
X126381171Y-78231048D01*
X126212241Y-78399683D01*
X126120704Y-78620129D01*
X126120496Y-78858824D01*
X126211648Y-79079429D01*
X126380283Y-79248359D01*
X126600729Y-79339896D01*
X126839424Y-79340104D01*
X126960685Y-79290000D01*
X127508782Y-79290000D01*
X127745400Y-79526617D01*
X127745400Y-80290182D01*
X127305582Y-80730000D01*
X126849189Y-80730000D01*
X126898759Y-80680517D01*
X126990296Y-80460071D01*
X126990504Y-80221376D01*
X126899352Y-80000771D01*
X126730717Y-79831841D01*
X126510271Y-79740304D01*
X126271576Y-79740096D01*
X126146849Y-79791632D01*
X123409267Y-79807831D01*
X123384648Y-79807831D01*
X123104200Y-79527383D01*
X123104304Y-79408576D01*
X123013152Y-79187971D01*
X122844517Y-79019041D01*
X122624071Y-78927504D01*
X122385376Y-78927296D01*
X122164771Y-79018448D01*
X121995841Y-79187083D01*
X121904304Y-79407529D01*
X121904096Y-79646224D01*
X121978090Y-79825303D01*
X121996066Y-79915676D01*
X122115291Y-80094109D01*
X122751183Y-80730000D01*
X116749834Y-80730000D01*
X116629671Y-80680104D01*
X116390976Y-80679896D01*
X116269715Y-80730000D01*
X108177817Y-80730000D01*
X107052200Y-79604382D01*
X107052200Y-78466632D01*
X117513061Y-78466632D01*
X117634597Y-78760772D01*
X117859445Y-78986012D01*
X118153372Y-79108061D01*
X118471632Y-79108339D01*
X118765772Y-78986803D01*
X118991012Y-78761955D01*
X119113061Y-78468028D01*
X119113339Y-78149768D01*
X118991803Y-77855628D01*
X118766955Y-77630388D01*
X118473028Y-77508339D01*
X118154768Y-77508061D01*
X117860628Y-77629597D01*
X117635388Y-77854445D01*
X117513339Y-78148372D01*
X117513061Y-78466632D01*
X107052200Y-78466632D01*
X107052200Y-77964034D01*
X107102096Y-77843871D01*
X107102304Y-77605176D01*
X107011152Y-77384571D01*
X106842517Y-77215641D01*
X106622071Y-77124104D01*
X106383376Y-77123896D01*
X106162771Y-77215048D01*
X105993841Y-77383683D01*
X105902304Y-77604129D01*
X105902096Y-77842824D01*
X105817647Y-77842824D01*
X105758377Y-77544853D01*
X105584958Y-77285315D01*
X105375000Y-77145025D01*
X105375000Y-73245424D01*
X106892696Y-73245424D01*
X106983848Y-73466029D01*
X107092800Y-73575172D01*
X107092800Y-74345800D01*
X107123248Y-74498874D01*
X107209957Y-74628643D01*
X107971957Y-75390643D01*
X108101726Y-75477352D01*
X108254800Y-75507801D01*
X108254805Y-75507800D01*
X111489313Y-75507800D01*
X111597483Y-75616159D01*
X111803018Y-75701504D01*
X111793576Y-75701496D01*
X111572971Y-75792648D01*
X111404041Y-75961283D01*
X111312504Y-76181729D01*
X111312296Y-76420424D01*
X111403448Y-76641029D01*
X111572083Y-76809959D01*
X111792529Y-76901496D01*
X112031224Y-76901704D01*
X112251829Y-76810552D01*
X112360972Y-76701600D01*
X118846600Y-76701600D01*
X118999674Y-76671152D01*
X119129443Y-76584443D01*
X119459640Y-76254245D01*
X119459643Y-76254243D01*
X119546352Y-76124473D01*
X119576800Y-75971400D01*
X119576800Y-75581687D01*
X119685159Y-75473517D01*
X119776696Y-75253071D01*
X119776904Y-75014376D01*
X119685752Y-74793771D01*
X119517117Y-74624841D01*
X119296671Y-74533304D01*
X119057976Y-74533096D01*
X118837371Y-74624248D01*
X118668441Y-74792883D01*
X118576904Y-75013329D01*
X118576696Y-75252024D01*
X118667848Y-75472629D01*
X118776800Y-75581772D01*
X118776800Y-75805715D01*
X118680914Y-75901600D01*
X112360887Y-75901600D01*
X112252717Y-75793241D01*
X112047182Y-75707896D01*
X112056624Y-75707904D01*
X112277229Y-75616752D01*
X112446159Y-75448117D01*
X112537696Y-75227671D01*
X112537904Y-74988976D01*
X112446752Y-74768371D01*
X112278117Y-74599441D01*
X112057671Y-74507904D01*
X111818976Y-74507696D01*
X111598371Y-74598848D01*
X111489228Y-74707800D01*
X108420486Y-74707800D01*
X107892800Y-74180114D01*
X107892800Y-73575087D01*
X107965634Y-73502380D01*
X107900122Y-73660150D01*
X107899879Y-73938628D01*
X108006223Y-74196000D01*
X108202964Y-74393085D01*
X108460150Y-74499878D01*
X108738628Y-74500121D01*
X108996000Y-74393777D01*
X109193085Y-74197036D01*
X109299878Y-73939850D01*
X109300121Y-73661372D01*
X109193777Y-73404000D01*
X108997036Y-73206915D01*
X108739850Y-73100122D01*
X108461372Y-73099879D01*
X108204000Y-73206223D01*
X108042440Y-73367501D01*
X108092696Y-73246471D01*
X108092904Y-73007776D01*
X108001752Y-72787171D01*
X107833117Y-72618241D01*
X107612671Y-72526704D01*
X107373976Y-72526496D01*
X107153371Y-72617648D01*
X106984441Y-72786283D01*
X106892904Y-73006729D01*
X106892696Y-73245424D01*
X105375000Y-73245424D01*
X105375000Y-70575000D01*
X107977003Y-70575000D01*
X107900122Y-70760150D01*
G36*
X124914123Y-71010000D02*
X124914123Y-71810000D01*
X124935042Y-71921173D01*
X125000745Y-72023279D01*
X125100997Y-72091778D01*
X125220000Y-72115877D01*
X125220000Y-72330800D01*
X125250448Y-72483874D01*
X125337157Y-72613643D01*
X125751957Y-73028443D01*
X125881726Y-73115152D01*
X126034800Y-73145601D01*
X126034805Y-73145600D01*
X126550719Y-73145600D01*
X126404000Y-73206223D01*
X126206915Y-73402964D01*
X126100122Y-73660150D01*
X126099879Y-73938628D01*
X126206223Y-74196000D01*
X126402964Y-74393085D01*
X126660150Y-74499878D01*
X126938628Y-74500121D01*
X127196000Y-74393777D01*
X127393085Y-74197036D01*
X127499878Y-73939850D01*
X127500121Y-73661372D01*
X127393777Y-73404000D01*
X127197036Y-73206915D01*
X127049373Y-73145600D01*
X127977314Y-73145600D01*
X129629402Y-74797688D01*
X129587927Y-75006200D01*
X129648823Y-75312347D01*
X129822242Y-75571885D01*
X130025000Y-75707365D01*
X130025000Y-75752835D01*
X129822242Y-75888315D01*
X129711534Y-76054000D01*
X129654886Y-76054000D01*
X128908443Y-75307557D01*
X128778674Y-75220848D01*
X128625600Y-75190400D01*
X124222687Y-75190400D01*
X124174200Y-75141828D01*
X124174200Y-73266886D01*
X124302840Y-73138245D01*
X124302843Y-73138243D01*
X124376209Y-73028443D01*
X124389552Y-73008474D01*
X124420001Y-72855400D01*
X124420000Y-72855395D01*
X124420000Y-72115877D01*
X124531173Y-72094958D01*
X124633279Y-72029255D01*
X124701778Y-71929003D01*
X124725877Y-71810000D01*
X124725877Y-71010000D01*
X124721474Y-70986600D01*
X124918862Y-70986600D01*
X124914123Y-71010000D01*
X124914123Y-71010000D01*
G37*
X124914123Y-71010000D02*
X124914123Y-71810000D01*
X124935042Y-71921173D01*
X125000745Y-72023279D01*
X125100997Y-72091778D01*
X125220000Y-72115877D01*
X125220000Y-72330800D01*
X125250448Y-72483874D01*
X125337157Y-72613643D01*
X125751957Y-73028443D01*
X125881726Y-73115152D01*
X126034800Y-73145601D01*
X126034805Y-73145600D01*
X126550719Y-73145600D01*
X126404000Y-73206223D01*
X126206915Y-73402964D01*
X126100122Y-73660150D01*
X126099879Y-73938628D01*
X126206223Y-74196000D01*
X126402964Y-74393085D01*
X126660150Y-74499878D01*
X126938628Y-74500121D01*
X127196000Y-74393777D01*
X127393085Y-74197036D01*
X127499878Y-73939850D01*
X127500121Y-73661372D01*
X127393777Y-73404000D01*
X127197036Y-73206915D01*
X127049373Y-73145600D01*
X127977314Y-73145600D01*
X129629402Y-74797688D01*
X129587927Y-75006200D01*
X129648823Y-75312347D01*
X129822242Y-75571885D01*
X130025000Y-75707365D01*
X130025000Y-75752835D01*
X129822242Y-75888315D01*
X129711534Y-76054000D01*
X129654886Y-76054000D01*
X128908443Y-75307557D01*
X128778674Y-75220848D01*
X128625600Y-75190400D01*
X124222687Y-75190400D01*
X124174200Y-75141828D01*
X124174200Y-73266886D01*
X124302840Y-73138245D01*
X124302843Y-73138243D01*
X124376209Y-73028443D01*
X124389552Y-73008474D01*
X124420001Y-72855400D01*
X124420000Y-72855395D01*
X124420000Y-72115877D01*
X124531173Y-72094958D01*
X124633279Y-72029255D01*
X124701778Y-71929003D01*
X124725877Y-71810000D01*
X124725877Y-71010000D01*
X124721474Y-70986600D01*
X124918862Y-70986600D01*
X124914123Y-71010000D01*
G36*
X130025000Y-74061914D02*
X128425843Y-72462757D01*
X128296074Y-72376048D01*
X128143000Y-72345600D01*
X126200486Y-72345600D01*
X126020000Y-72165114D01*
X126020000Y-72115877D01*
X126131173Y-72094958D01*
X126233279Y-72029255D01*
X126301778Y-71929003D01*
X126325877Y-71810000D01*
X126325877Y-71415863D01*
X126402964Y-71493085D01*
X126660150Y-71599878D01*
X126938628Y-71600121D01*
X127196000Y-71493777D01*
X127393085Y-71297036D01*
X127499878Y-71039850D01*
X127500121Y-70761372D01*
X127423114Y-70575000D01*
X130025000Y-70575000D01*
X130025000Y-74061914D01*
X130025000Y-74061914D01*
G37*
X130025000Y-74061914D02*
X128425843Y-72462757D01*
X128296074Y-72376048D01*
X128143000Y-72345600D01*
X126200486Y-72345600D01*
X126020000Y-72165114D01*
X126020000Y-72115877D01*
X126131173Y-72094958D01*
X126233279Y-72029255D01*
X126301778Y-71929003D01*
X126325877Y-71810000D01*
X126325877Y-71415863D01*
X126402964Y-71493085D01*
X126660150Y-71599878D01*
X126938628Y-71600121D01*
X127196000Y-71493777D01*
X127393085Y-71297036D01*
X127499878Y-71039850D01*
X127500121Y-70761372D01*
X127423114Y-70575000D01*
X130025000Y-70575000D01*
X130025000Y-74061914D01*
M02*
