G04 #@! TF.FileFunction,Soldermask,Top*
%FSLAX46Y46*%
G04 Gerber Fmt 4.6, Leading zero omitted, Abs format (unit mm)*
G04 Created by KiCad (PCBNEW 4.0.7) date Tuesday, October 30, 2018 'PMt' 11:33:51 PM*
%MOMM*%
%LPD*%
G01*
G04 APERTURE LIST*
%ADD10C,0.100000*%
%ADD11R,1.600000X1.150000*%
%ADD12R,1.150000X1.600000*%
%ADD13R,1.100000X1.000000*%
%ADD14R,1.700000X2.200000*%
%ADD15O,1.400000X1.400000*%
%ADD16R,3.300000X1.200000*%
%ADD17R,1.300000X1.600000*%
%ADD18R,1.600000X1.300000*%
%ADD19C,1.200000*%
%ADD20R,1.950000X1.600000*%
%ADD21R,1.960000X1.050000*%
%ADD22R,1.900000X0.850000*%
%ADD23C,1.400000*%
G04 APERTURE END LIST*
D10*
D11*
X113248400Y-82118200D03*
X115148400Y-82118200D03*
X128305600Y-75234800D03*
X126405600Y-75234800D03*
D12*
X119964200Y-78399600D03*
X119964200Y-80299600D03*
D11*
X117820400Y-82118200D03*
X119720400Y-82118200D03*
X114543800Y-79375000D03*
X116443800Y-79375000D03*
X114543800Y-78054200D03*
X116443800Y-78054200D03*
X128661200Y-81864200D03*
X126761200Y-81864200D03*
D13*
X112979200Y-71080400D03*
X112979200Y-72480400D03*
D14*
X106480000Y-75690000D03*
X110680000Y-75690000D03*
X106480000Y-81510000D03*
X110680000Y-81510000D03*
D15*
X105003600Y-77851000D03*
X104978200Y-79781400D03*
X119761000Y-70205600D03*
X118491000Y-70205600D03*
X117221000Y-70205600D03*
X115951000Y-70205600D03*
X130420000Y-78820000D03*
X130410000Y-81870000D03*
X130420000Y-80350000D03*
X130403600Y-75006200D03*
X130403600Y-76454000D03*
D16*
X122478800Y-78300400D03*
X122478800Y-80500400D03*
D17*
X112953800Y-74084000D03*
X112953800Y-76284000D03*
X112420400Y-78249600D03*
X112420400Y-80449600D03*
D18*
X123731200Y-82016600D03*
X121531200Y-82016600D03*
X125239600Y-80365600D03*
X127439600Y-80365600D03*
D17*
X122529600Y-74175800D03*
X122529600Y-71975800D03*
D19*
X108600000Y-73800000D03*
D20*
X106100000Y-71500000D03*
X106100000Y-73200000D03*
X111150000Y-71500000D03*
X111150000Y-73200000D03*
D19*
X108600000Y-70900000D03*
X126800000Y-73800000D03*
D20*
X124300000Y-71500000D03*
X124300000Y-73200000D03*
X129350000Y-71500000D03*
X129350000Y-73200000D03*
D19*
X126800000Y-70900000D03*
D21*
X125421400Y-76850200D03*
X125421400Y-77800200D03*
X125421400Y-78750200D03*
X128121400Y-78750200D03*
X128121400Y-76850200D03*
X128121400Y-77800200D03*
D22*
X114728200Y-72375600D03*
X114728200Y-73025600D03*
X114728200Y-73675600D03*
X114728200Y-74325600D03*
X114728200Y-74975600D03*
X114728200Y-75625600D03*
X114728200Y-76275600D03*
X114728200Y-76925600D03*
X120628200Y-76925600D03*
X120628200Y-76275600D03*
X120628200Y-75625600D03*
X120628200Y-74975600D03*
X120628200Y-74325600D03*
X120628200Y-73675600D03*
X120628200Y-73025600D03*
X120628200Y-72375600D03*
D23*
X118313200Y-78308200D03*
M02*
