G04 #@! TF.FileFunction,Legend,Bot*
%FSLAX46Y46*%
G04 Gerber Fmt 4.6, Leading zero omitted, Abs format (unit mm)*
G04 Created by KiCad (PCBNEW 4.0.7) date Tuesday, October 30, 2018 'PMt' 11:33:51 PM*
%MOMM*%
%LPD*%
G01*
G04 APERTURE LIST*
%ADD10C,0.100000*%
%ADD11C,0.031750*%
%ADD12C,0.120000*%
G04 APERTURE END LIST*
D10*
D11*
X107286309Y-76787352D02*
X107286309Y-76387352D01*
X107191071Y-76387352D01*
X107133928Y-76406400D01*
X107095833Y-76444495D01*
X107076785Y-76482590D01*
X107057737Y-76558781D01*
X107057737Y-76615924D01*
X107076785Y-76692114D01*
X107095833Y-76730210D01*
X107133928Y-76768305D01*
X107191071Y-76787352D01*
X107286309Y-76787352D01*
X106657737Y-76749257D02*
X106676785Y-76768305D01*
X106733928Y-76787352D01*
X106772023Y-76787352D01*
X106829166Y-76768305D01*
X106867261Y-76730210D01*
X106886309Y-76692114D01*
X106905357Y-76615924D01*
X106905357Y-76558781D01*
X106886309Y-76482590D01*
X106867261Y-76444495D01*
X106829166Y-76406400D01*
X106772023Y-76387352D01*
X106733928Y-76387352D01*
X106676785Y-76406400D01*
X106657737Y-76425448D01*
X106257737Y-76749257D02*
X106276785Y-76768305D01*
X106333928Y-76787352D01*
X106372023Y-76787352D01*
X106429166Y-76768305D01*
X106467261Y-76730210D01*
X106486309Y-76692114D01*
X106505357Y-76615924D01*
X106505357Y-76558781D01*
X106486309Y-76482590D01*
X106467261Y-76444495D01*
X106429166Y-76406400D01*
X106372023Y-76387352D01*
X106333928Y-76387352D01*
X106276785Y-76406400D01*
X106257737Y-76425448D01*
X106086309Y-76634971D02*
X105781547Y-76634971D01*
X105610119Y-76673067D02*
X105419642Y-76673067D01*
X105648214Y-76787352D02*
X105514880Y-76387352D01*
X105381547Y-76787352D01*
X107314881Y-81600652D02*
X107314881Y-81200652D01*
X107219643Y-81200652D01*
X107162500Y-81219700D01*
X107124405Y-81257795D01*
X107105357Y-81295890D01*
X107086309Y-81372081D01*
X107086309Y-81429224D01*
X107105357Y-81505414D01*
X107124405Y-81543510D01*
X107162500Y-81581605D01*
X107219643Y-81600652D01*
X107314881Y-81600652D01*
X106686309Y-81562557D02*
X106705357Y-81581605D01*
X106762500Y-81600652D01*
X106800595Y-81600652D01*
X106857738Y-81581605D01*
X106895833Y-81543510D01*
X106914881Y-81505414D01*
X106933929Y-81429224D01*
X106933929Y-81372081D01*
X106914881Y-81295890D01*
X106895833Y-81257795D01*
X106857738Y-81219700D01*
X106800595Y-81200652D01*
X106762500Y-81200652D01*
X106705357Y-81219700D01*
X106686309Y-81238748D01*
X106286309Y-81562557D02*
X106305357Y-81581605D01*
X106362500Y-81600652D01*
X106400595Y-81600652D01*
X106457738Y-81581605D01*
X106495833Y-81543510D01*
X106514881Y-81505414D01*
X106533929Y-81429224D01*
X106533929Y-81372081D01*
X106514881Y-81295890D01*
X106495833Y-81257795D01*
X106457738Y-81219700D01*
X106400595Y-81200652D01*
X106362500Y-81200652D01*
X106305357Y-81219700D01*
X106286309Y-81238748D01*
X106114881Y-81448271D02*
X105810119Y-81448271D01*
X105486310Y-81391129D02*
X105429167Y-81410176D01*
X105410119Y-81429224D01*
X105391071Y-81467319D01*
X105391071Y-81524462D01*
X105410119Y-81562557D01*
X105429167Y-81581605D01*
X105467262Y-81600652D01*
X105619643Y-81600652D01*
X105619643Y-81200652D01*
X105486310Y-81200652D01*
X105448214Y-81219700D01*
X105429167Y-81238748D01*
X105410119Y-81276843D01*
X105410119Y-81314938D01*
X105429167Y-81353033D01*
X105448214Y-81372081D01*
X105486310Y-81391129D01*
X105619643Y-81391129D01*
X125000123Y-72477695D02*
X125000123Y-72227695D01*
X124940599Y-72227695D01*
X124904885Y-72239600D01*
X124881076Y-72263410D01*
X124869171Y-72287219D01*
X124857266Y-72334838D01*
X124857266Y-72370552D01*
X124869171Y-72418171D01*
X124881076Y-72441981D01*
X124904885Y-72465790D01*
X124940599Y-72477695D01*
X125000123Y-72477695D01*
X124642980Y-72311029D02*
X124642980Y-72477695D01*
X124702504Y-72215790D02*
X124762028Y-72394362D01*
X124607266Y-72394362D01*
X110839623Y-72490395D02*
X110839623Y-72240395D01*
X110780099Y-72240395D01*
X110744385Y-72252300D01*
X110720576Y-72276110D01*
X110708671Y-72299919D01*
X110696766Y-72347538D01*
X110696766Y-72383252D01*
X110708671Y-72430871D01*
X110720576Y-72454681D01*
X110744385Y-72478490D01*
X110780099Y-72490395D01*
X110839623Y-72490395D01*
X110613433Y-72240395D02*
X110458671Y-72240395D01*
X110542004Y-72335633D01*
X110506290Y-72335633D01*
X110482480Y-72347538D01*
X110470576Y-72359443D01*
X110458671Y-72383252D01*
X110458671Y-72442776D01*
X110470576Y-72466586D01*
X110482480Y-72478490D01*
X110506290Y-72490395D01*
X110577718Y-72490395D01*
X110601528Y-72478490D01*
X110613433Y-72466586D01*
X110125003Y-82032095D02*
X109982146Y-82032095D01*
X110053575Y-82282095D02*
X110053575Y-82032095D01*
X109720242Y-82020190D02*
X109934527Y-82341619D01*
X109589289Y-82032095D02*
X109541670Y-82032095D01*
X109517861Y-82044000D01*
X109494051Y-82067810D01*
X109482146Y-82115429D01*
X109482146Y-82198762D01*
X109494051Y-82246381D01*
X109517861Y-82270190D01*
X109541670Y-82282095D01*
X109589289Y-82282095D01*
X109613099Y-82270190D01*
X109636908Y-82246381D01*
X109648813Y-82198762D01*
X109648813Y-82115429D01*
X109636908Y-82067810D01*
X109613099Y-82044000D01*
X109589289Y-82032095D01*
X109041670Y-82258286D02*
X109053575Y-82270190D01*
X109089289Y-82282095D01*
X109113099Y-82282095D01*
X109148813Y-82270190D01*
X109172622Y-82246381D01*
X109184527Y-82222571D01*
X109196432Y-82174952D01*
X109196432Y-82139238D01*
X109184527Y-82091619D01*
X109172622Y-82067810D01*
X109148813Y-82044000D01*
X109113099Y-82032095D01*
X109089289Y-82032095D01*
X109053575Y-82044000D01*
X109041670Y-82055905D01*
X108898813Y-82282095D02*
X108922622Y-82270190D01*
X108934527Y-82258286D01*
X108946432Y-82234476D01*
X108946432Y-82163048D01*
X108934527Y-82139238D01*
X108922622Y-82127333D01*
X108898813Y-82115429D01*
X108863099Y-82115429D01*
X108839289Y-82127333D01*
X108827384Y-82139238D01*
X108815480Y-82163048D01*
X108815480Y-82234476D01*
X108827384Y-82258286D01*
X108839289Y-82270190D01*
X108863099Y-82282095D01*
X108898813Y-82282095D01*
X108708337Y-82115429D02*
X108708337Y-82282095D01*
X108708337Y-82139238D02*
X108696432Y-82127333D01*
X108672623Y-82115429D01*
X108636909Y-82115429D01*
X108613099Y-82127333D01*
X108601194Y-82151143D01*
X108601194Y-82282095D01*
X108517861Y-82115429D02*
X108422623Y-82115429D01*
X108482147Y-82032095D02*
X108482147Y-82246381D01*
X108470242Y-82270190D01*
X108446433Y-82282095D01*
X108422623Y-82282095D01*
X108339290Y-82282095D02*
X108339290Y-82115429D01*
X108339290Y-82163048D02*
X108327385Y-82139238D01*
X108315481Y-82127333D01*
X108291671Y-82115429D01*
X108267862Y-82115429D01*
X108148814Y-82282095D02*
X108172623Y-82270190D01*
X108184528Y-82258286D01*
X108196433Y-82234476D01*
X108196433Y-82163048D01*
X108184528Y-82139238D01*
X108172623Y-82127333D01*
X108148814Y-82115429D01*
X108113100Y-82115429D01*
X108089290Y-82127333D01*
X108077385Y-82139238D01*
X108065481Y-82163048D01*
X108065481Y-82234476D01*
X108077385Y-82258286D01*
X108089290Y-82270190D01*
X108113100Y-82282095D01*
X108148814Y-82282095D01*
X107922624Y-82282095D02*
X107946433Y-82270190D01*
X107958338Y-82246381D01*
X107958338Y-82032095D01*
X107791672Y-82282095D02*
X107815481Y-82270190D01*
X107827386Y-82246381D01*
X107827386Y-82032095D01*
X107601196Y-82270190D02*
X107625006Y-82282095D01*
X107672625Y-82282095D01*
X107696434Y-82270190D01*
X107708339Y-82246381D01*
X107708339Y-82151143D01*
X107696434Y-82127333D01*
X107672625Y-82115429D01*
X107625006Y-82115429D01*
X107601196Y-82127333D01*
X107589291Y-82151143D01*
X107589291Y-82174952D01*
X107708339Y-82198762D01*
X107482148Y-82282095D02*
X107482148Y-82115429D01*
X107482148Y-82163048D02*
X107470243Y-82139238D01*
X107458339Y-82127333D01*
X107434529Y-82115429D01*
X107410720Y-82115429D01*
X107172624Y-82032095D02*
X107089291Y-82282095D01*
X107005958Y-82032095D01*
X106827386Y-82270190D02*
X106851196Y-82282095D01*
X106898815Y-82282095D01*
X106922624Y-82270190D01*
X106934529Y-82246381D01*
X106934529Y-82151143D01*
X106922624Y-82127333D01*
X106898815Y-82115429D01*
X106851196Y-82115429D01*
X106827386Y-82127333D01*
X106815481Y-82151143D01*
X106815481Y-82174952D01*
X106934529Y-82198762D01*
X106708338Y-82282095D02*
X106708338Y-82115429D01*
X106708338Y-82163048D02*
X106696433Y-82139238D01*
X106684529Y-82127333D01*
X106660719Y-82115429D01*
X106636910Y-82115429D01*
X106232148Y-82282095D02*
X106375005Y-82282095D01*
X106303576Y-82282095D02*
X106303576Y-82032095D01*
X106327386Y-82067810D01*
X106351195Y-82091619D01*
X106375005Y-82103524D01*
X106125005Y-82258286D02*
X106113100Y-82270190D01*
X106125005Y-82282095D01*
X106136910Y-82270190D01*
X106125005Y-82258286D01*
X106125005Y-82282095D01*
X105875005Y-82282095D02*
X106017862Y-82282095D01*
X105946433Y-82282095D02*
X105946433Y-82032095D01*
X105970243Y-82067810D01*
X105994052Y-82091619D01*
X106017862Y-82103524D01*
D12*
X111950000Y-70875000D02*
X111950000Y-71875000D01*
X111950000Y-71875000D02*
X109850000Y-71875000D01*
X111950000Y-70875000D02*
X109850000Y-70875000D01*
X123520000Y-71910000D02*
X123520000Y-70910000D01*
X123520000Y-70910000D02*
X125620000Y-70910000D01*
X123520000Y-71910000D02*
X125620000Y-71910000D01*
M02*
