M48
;DRILL file {KiCad 4.0.7} date Thursday, August 02, 2018 'PMt' 03:48:00 PM
;FORMAT={-:-/ absolute / metric / decimal}
FMAT,2
METRIC,TZ
T1C0.400
T2C0.700
%
G90
G05
M71
T1
X106.502Y-77.724
X107.493Y-73.127
X107.747Y-71.907
X111.912Y-76.302
X111.938Y-75.108
X111.963Y-82.093
X116.078Y-72.771
X116.51Y-81.28
X118.44Y-72.771
X119.177Y-75.133
X119.304Y-73.914
X120.447Y-71.12
X122.504Y-79.527
X122.53Y-76.352
X122.606Y-82.245
X122.784Y-70.663
X123.774Y-75.59
X124.816Y-74.727
X125.222Y-82.144
X126.39Y-80.34
X126.721Y-78.74
X127.61Y-72.06
X129.286Y-80.315
T2
X104.978Y-79.781
X105.004Y-77.851
X115.951Y-70.206
X117.221Y-70.206
X118.491Y-70.206
X119.761Y-70.206
X130.404Y-75.006
X130.404Y-76.454
X130.41Y-81.87
X130.42Y-78.82
X130.42Y-80.35
T0
M30
